<svg id="Layer_1" height="512" viewBox="0 0 512 512" width="512" xmlns="http://www.w3.org/2000/svg" data-name="Layer 1"><path d="m453.44 33.11v377c0 10.18-8.7 18.42-19.42 18.42h-339.21a37.15 37.15 0 0 0 -25.63 10.07 33.437 33.437 0 0 0 -10.62 24.32v-429.8c0-10.18 8.7-18.42 19.42-18.42h356.04c10.72 0 19.42 8.24 19.42 18.41zm-69.26 190.57a128.18 128.18 0 1 0 -128.18 128.18 128.182 128.182 0 0 0 128.18-128.18z" fill="#00acea"/><path d="m427.54 428.53v50.36c0 10.17-8.69 18.41-19.42 18.41h-313.31c-20.02 0-36.25-15.39-36.25-34.38a33.437 33.437 0 0 1 10.62-24.32 37.15 37.15 0 0 1 25.63-10.07z" fill="#fedb41"/><circle cx="256" cy="223.68" fill="#00efd1" r="128.18"/><g fill="#083863"><path d="m94.81 503h313.31c14.017 0 25.88-10.65 25.88-24.11v-43.89h.02a24.973 24.973 0 0 0 24.98-24.89v-377c0-13.46-10.963-24.11-24.98-24.11h-356.04c-14.017 0-24.98 10.655-24.98 24.12v429.8c0 22.266 18.513 40.08 41.81 40.08zm-29.81-469.88c0-6.848 5.58-12.12 12.98-12.12h356.04c7.4 0 12.98 5.267 12.98 12.11v377a12.959 12.959 0 0 1 -12.98 12.89h-339.21a42.265 42.265 0 0 0 -29.542 11.485c-.164.155-.268.077-.268.236zm8.309 410.069a30.85 30.85 0 0 1 21.501-8.189h327.19v43.89c0 6.843-6.48 12.11-13.88 12.11h-313.31c-16.68 0-30.25-12.464-30.25-28.112a26.8 26.8 0 0 1 8.749-19.699z"/><path d="m227.616 273.741a6 6 0 0 0 3.623-10.786l-51.861-39.215 51.861-39.214a6 6 0 1 0 -7.239-9.571l-58.189 44a6 6 0 0 0 0 9.571l58.189 44a5.974 5.974 0 0 0 3.616 1.215z"/><path d="m279.594 271.359a6 6 0 0 0 8.406 1.167l58.189-44a6 6 0 0 0 0-9.571l-58.189-44a6 6 0 1 0 -7.238 9.571l51.861 39.214-51.861 39.215a6 6 0 0 0 -1.168 8.404z"/><path d="m245.172 295.653a6.063 6.063 0 0 0 .905.068 6 6 0 0 0 5.925-5.1l19.861-131.25a6 6 0 0 0 -11.863-1.798l-19.861 131.25a6 6 0 0 0 5.033 6.83z"/><path d="m256 357.86c73.987 0 134.18-60.193 134.18-134.18s-60.193-134.18-134.18-134.18-134.18 60.193-134.18 134.18 60.193 134.18 134.18 134.18zm0-256.36a122.18 122.18 0 1 1 -122.18 122.18 122.318 122.318 0 0 1 122.18-122.18z"/></g></svg>