<svg id="Layer_1" height="512" viewBox="0 0 512 512" width="512" xmlns="http://www.w3.org/2000/svg" data-name="Layer 1"><path d="m395.39 236.02v158.4a78.156 78.156 0 0 1 -78.16 78.16h-61.23v-236.56z" fill="#f4b844"/><path d="m395.39 199v37.02h-278.78v-37.02a78.162 78.162 0 0 1 78.16-78.16h122.46a78.162 78.162 0 0 1 78.16 78.16zm-64.39-21a20 20 0 1 0 -20 20 19.994 19.994 0 0 0 20-20zm-110 0a20 20 0 1 0 -20 20 19.994 19.994 0 0 0 20-20z" fill="#00efd1"/><circle cx="311" cy="178" fill="#00acea" r="20"/><path d="m256 237.98v234.6h-61.23a78.156 78.156 0 0 1 -78.16-78.16v-158.4h139.39z" fill="#fedb41"/><circle cx="201" cy="178" fill="#00acea" r="20"/><g fill="#083863"><path d="m34 419.31a6 6 0 0 0 6-6v-22.15a33.084 33.084 0 0 1 32.96-33.16h38.04v36.42c0 46.406 37.364 84.58 83.77 84.58h122.46c46.406 0 83.77-38.174 83.77-84.58v-36.42h38.04a33.084 33.084 0 0 1 32.96 33.16v22.15a6 6 0 0 0 12 0v-22.15a45.1 45.1 0 0 0 -44.96-45.16h-38.04v-125h38.04c18.24 0 32.96 15.13 32.96 33.37v22.15a6 6 0 0 0 12 0v-22.15c0-24.857-20.1-45.37-44.96-45.37h-38.04v-10a83.786 83.786 0 0 0 -83.77-84h-25.23v-36.5c0-18.24 14.8-33.5 33.05-33.5h22.14a6 6 0 0 0 0-12h-22.14c-24.863 0-45.05 20.643-45.05 45.5v36.5h-48v-36.5c0-24.857-20.187-45.5-45.05-45.5h-22.14a6 6 0 0 0 0 12h22.14c18.25 0 33.05 15.26 33.05 33.5v36.5h-25.23a83.786 83.786 0 0 0 -83.77 84v10h-38.04c-24.86 0-44.96 20.513-44.96 45.37v22.15a6 6 0 0 0 12 0v-22.15c0-18.24 14.72-33.37 32.96-33.37h38.04v125h-38.04a45.1 45.1 0 0 0 -44.96 45.16v22.15a6 6 0 0 0 6 6zm89-24.89v-152.42h127v225h-55.23c-39.789 0-71.77-32.791-71.77-72.58zm194.23 72.58h-55.23v-225h127v152.42c0 39.789-31.981 72.58-71.77 72.58zm-122.46-340h122.46a71.773 71.773 0 0 1 71.77 72v31h-266v-31a71.773 71.773 0 0 1 71.77-72z"/><path d="m201 204a26 26 0 1 0 -26-26 26.03 26.03 0 0 0 26 26zm0-40a14 14 0 1 1 -14 14 14.015 14.015 0 0 1 14-14z"/><path d="m311 204a26 26 0 1 0 -26-26 26.03 26.03 0 0 0 26 26zm0-40a14 14 0 1 1 -14 14 14.015 14.015 0 0 1 14-14z"/></g></svg>