<svg id="Layer_1" height="512" viewBox="0 0 512 512" width="512" xmlns="http://www.w3.org/2000/svg" data-name="Layer 1"><path d="m365.73 320.34h-219.46v-188.11-65.32h350.09v312.86l-82.95-59.43z" fill="#00efd1"/><path d="m365.73 320.34v65.31h-267.14l-82.95 59.44v-312.86h130.2.43v188.11z" fill="#00acea"/><g fill="#083863"><path d="m496.36 61h-350.09a6.16 6.16 0 0 0 -6.27 5.91v59.09h-124.36c-3.314 0-5.64 2.917-5.64 6.23v312.86a5.839 5.839 0 0 0 3.079 5.337 5.633 5.633 0 0 0 2.65.663 5.7 5.7 0 0 0 3.451-.948l81.338-58.142h265.212a6.543 6.543 0 0 0 6.27-6.35v-59.65h39.482l81.384 58.478a6.088 6.088 0 0 0 3.5 1.207 5.248 5.248 0 0 0 2.561-.621 5.774 5.774 0 0 0 3.073-5.294v-312.86a5.626 5.626 0 0 0 -5.64-5.91zm-136.36 319h-261.41a5.314 5.314 0 0 0 -3.315.948l-73.275 52.461v-295.409h118v182.34c0 3.313 2.956 5.66 6.27 5.66h213.73zm130-11.91-73.276-52.8a5.655 5.655 0 0 0 -3.314-1.29h-261.41v-241h338z"/><path d="m353.37 142h36.12a6 6 0 0 0 0-12h-36.12a6 6 0 0 0 0 12z"/><path d="m353.37 253h102.98a6 6 0 0 0 0-12h-102.98a6 6 0 0 0 0 12z"/><path d="m353.37 194h102.98a6 6 0 0 0 0-12h-102.98a6 6 0 0 0 0 12z"/><path d="m181.09 208.625 44.62 33.75a6 6 0 1 0 7.239-9.57l-38.292-28.965 38.292-28.954a6 6 0 0 0 -7.238-9.572l-44.62 33.74a6 6 0 0 0 0 9.571z"/><path d="m277.955 241.209a6 6 0 0 0 8.4 1.166l44.621-33.75a6 6 0 0 0 0-9.571l-44.62-33.74a6 6 0 1 0 -7.238 9.572l38.292 28.954-38.29 28.965a6 6 0 0 0 -1.165 8.404z"/><path d="m247.482 260.373a6.2 6.2 0 0 0 .905.068 6 6 0 0 0 5.925-5.1l15.23-100.649a6 6 0 1 0 -11.865-1.795l-15.229 100.645a6 6 0 0 0 5.034 6.831z"/></g></svg>