<svg id="Layer_1" height="512" viewBox="0 0 512 512" width="512" xmlns="http://www.w3.org/2000/svg" data-name="Layer 1"><path d="m471.61 354.4v71.45h-158.45-114.32-158.45v-71.45z" fill="#fedb41"/><path d="m471.61 81.75v272.65h-431.22v-272.65h107.09l13.67 16.48a114.97 114.97 0 0 0 -15.98 37.81l-30.83 2.98v41.51l30.83 2.98a110.786 110.786 0 0 0 15.98 37.81l-19.68 23.73 29.34 29.29 23.74-19.68a113.988 113.988 0 0 0 37.86 15.92l2.99 30.77h41.56l2.98-30.77a110.831 110.831 0 0 0 37.87-15.92l23.74 19.68 29.34-29.29-19.68-23.73a114.97 114.97 0 0 0 15.98-37.81l30.47-2.98v-41.51l-30.83-2.98a110.786 110.786 0 0 0 -15.98-37.81l13.71-16.54.07.06z" fill="#00efd1"/><path d="m147.48 81.75-6.01-7.25 29.34-29.28 23.74 19.68a110.688 110.688 0 0 1 37.86-15.93l2.99-30.77h41.56l2.98 30.77a113.765 113.765 0 0 1 37.87 15.93l23.74-19.68 28.98 29.28-5.97 7.19-13.71 16.54a110.786 110.786 0 0 1 15.98 37.81l30.83 2.98v41.51l-30.47 2.98a114.97 114.97 0 0 1 -15.98 37.81l19.68 23.73-29.34 29.29-23.74-19.68a110.831 110.831 0 0 1 -37.87 15.92l-2.98 30.77h-41.56l-2.99-30.77a113.988 113.988 0 0 1 -37.86-15.92l-23.74 19.68-29.34-29.29 19.68-23.73a110.786 110.786 0 0 1 -15.98-37.81l-30.83-2.98v-41.51l30.83-2.98a114.97 114.97 0 0 1 15.98-37.81zm191.86 78.03a83.31 83.31 0 1 0 -83.31 83.18 83.247 83.247 0 0 0 83.31-83.18z" fill="#00acea"/><path d="m313.16 425.85 19.05 67.95h-152.42l19.05-67.95z" fill="#f4b844"/><path d="m256.03 76.59a83.185 83.185 0 1 1 -83.31 83.19 83.247 83.247 0 0 1 83.31-83.19z" fill="#fedb41"/><g fill="#083863"><path d="m471.61 76h-95.235a6.157 6.157 0 0 0 -1.581-5.6l-28.98-29.342a6 6 0 0 0 -8.093-.43l-20.421 16.914a119.864 119.864 0 0 0 -31.8-13.423l-2.566-26.594a6.091 6.091 0 0 0 -5.974-5.525h-41.56a6.088 6.088 0 0 0 -5.972 5.52l-2.574 26.541a116.146 116.146 0 0 0 -31.835 13.409l-20.38-16.881a6 6 0 0 0 -8.067.378l-29.34 29.408a6.168 6.168 0 0 0 -1.606 5.625h-95.236c-3.314 0-6.39 2.436-6.39 5.75v344.1a6.474 6.474 0 0 0 6.39 6.15h150.536l-15.685 56h-27.4a6 6 0 0 0 0 12h216.319a6 6 0 1 0 0-12h-27.4l-15.685-56h150.535a6.474 6.474 0 0 0 6.39-6.15v-344.1c0-3.314-3.076-5.75-6.39-5.75zm-300.426-22.676 19.537 16.2a6 6 0 0 0 7.141.384 104.318 104.318 0 0 1 35.808-15.072 6.115 6.115 0 0 0 4.712-5.386l2.463-25.45h30.668l2.455 25.449a6.057 6.057 0 0 0 4.723 5.34 108.054 108.054 0 0 1 35.874 15.133 6 6 0 0 0 7.074-.415l19.511-16.168 21.288 21.511-16.208 19.55a6 6 0 0 0 -.377 7.151 104.469 104.469 0 0 1 15.114 35.766 6.2 6.2 0 0 0 5.456 4.7l25.577 2.451v30.62l-25.224 2.45a6.1 6.1 0 0 0 -5.359 4.671 108.848 108.848 0 0 1 -15.193 35.838 6 6 0 0 0 .389 7.1l16.177 19.519-21.609 21.567-19.539-16.195a6 6 0 0 0 -7.14-.386 104.444 104.444 0 0 1 -35.821 15.059 5.8 5.8 0 0 0 -4.713 5.112l-2.455 25.177h-30.668l-2.463-25.175a5.9 5.9 0 0 0 -4.722-5.2 108.086 108.086 0 0 1 -35.868-15.056 6 6 0 0 0 -7.071.451l-19.536 16.206-21.6-21.562 16.188-19.516a6 6 0 0 0 .378-7.15 104.452 104.452 0 0 1 -15.114-35.763 6.2 6.2 0 0 0 -5.456-4.7l-25.581-2.453v-30.614l25.577-2.456a6.1 6.1 0 0 0 5.365-4.671 108.854 108.854 0 0 1 15.194-35.841 6 6 0 0 0 -.389-7.1l-16.177-19.517zm153.116 434.676h-136.6l15.685-56h105.226zm141.7-68h-420v-60h420zm-420-72v-260h98.661l9.1 10.848a120.143 120.143 0 0 0 -13.421 31.694l-26.749 2.537a6.121 6.121 0 0 0 -5.591 5.941v41.51a6.15 6.15 0 0 0 5.593 5.972l26.644 2.567a116.325 116.325 0 0 0 13.46 31.786l-16.867 20.365a6 6 0 0 0 .39 8.076l29.345 29.29a6.006 6.006 0 0 0 8.072.373l20.42-16.927a120.108 120.108 0 0 0 31.8 13.407l2.575 26.316a5.85 5.85 0 0 0 5.968 5.245h41.56a5.85 5.85 0 0 0 5.972-5.246l2.566-26.4a116.1 116.1 0 0 0 31.841-13.333l20.382 16.918a6 6 0 0 0 8.068-.362l29.34-29.285a6 6 0 0 0 .379-8.073l-16.908-20.393a120.556 120.556 0 0 0 13.424-31.761l26.394-2.564a6.151 6.151 0 0 0 5.582-5.971v-41.51a6.15 6.15 0 0 0 -5.593-5.972l-26.644-2.568a115.605 115.605 0 0 0 -13.463-31.662l9.035-10.818h98.665v260z"/><path d="m256.03 248.96a89.185 89.185 0 1 0 -89.31-89.18 89.347 89.347 0 0 0 89.31 89.18zm0-166.37a77.185 77.185 0 1 1 -77.31 77.19 77.337 77.337 0 0 1 77.31-77.19z"/><path d="m193.611 164.335 36.79 27.821a6 6 0 0 0 7.238-9.572l-30.461-23.034 30.461-23.034a6 6 0 1 0 -7.238-9.572l-36.79 27.82a6 6 0 0 0 0 9.571z"/><path d="m274.421 136.516 30.461 23.034-30.461 23.034a6 6 0 1 0 7.238 9.572l36.79-27.821a6 6 0 0 0 0-9.571l-36.79-27.82a6 6 0 0 0 -7.238 9.572z"/><path d="m248.823 207.192a5.989 5.989 0 0 0 6.83-5.035l12.55-82.969a6 6 0 1 0 -11.866-1.8l-12.549 82.969a6 6 0 0 0 5.035 6.835z"/></g></svg>