<svg id="Layer_1" height="512" viewBox="0 0 512 512" width="512" xmlns="http://www.w3.org/2000/svg" data-name="Layer 1"><path d="m500.93 426.01v31.85a23.477 23.477 0 0 1 -23.48 23.48h-112.89a23.477 23.477 0 0 1 -23.48-23.48v-31.85zm-67.63 27.67a12.3 12.3 0 1 0 -12.29 12.29 12.3 12.3 0 0 0 12.29-12.29z" fill="#f4b844"/><path d="m341.08 369.42v-70.35-48.28h159.85v175.22h-159.85z" fill="#00efd1"/><path d="m435.59 204.68h41.86a23.477 23.477 0 0 1 23.48 23.48v22.63h-159.85v-22.63a23.477 23.477 0 0 1 23.48-23.48z" fill="#f4b844"/><path d="m435.59 30.66v174.02h-71.03a23.477 23.477 0 0 0 -23.48 23.48v70.91h-330.01v-268.41z" fill="#00efd1"/><path d="m421.01 441.38a12.3 12.3 0 1 1 -12.3 12.3 12.3 12.3 0 0 1 12.3-12.3z" fill="#00efd1"/><path d="m341.08 299.07v70.35h-61.47-112.55-155.99v-70.35z" fill="#00acea"/><path d="m279.61 369.42 18.75 66.89h-150.06l18.76-66.89z" fill="#fedb41"/><g fill="#083863"><path d="m202.646 127.391a6 6 0 0 0 -8.4-1.167l-52.22 39.49a6 6 0 0 0 0 9.572l52.22 39.49a6 6 0 1 0 7.238-9.571l-45.897-34.705 45.892-34.705a6 6 0 0 0 1.167-8.404z"/><path d="m304.648 165.714-52.23-39.49a6 6 0 0 0 -7.237 9.572l45.9 34.7-45.9 34.7a6 6 0 1 0 7.237 9.572l52.23-39.49a6 6 0 0 0 0-9.572z"/><path d="m233.148 105.987a6.006 6.006 0 0 0 -6.831 5.035l-17.83 117.79a6 6 0 0 0 5.035 6.831 6.178 6.178 0 0 0 .905.068 6 6 0 0 0 5.926-5.1l17.83-117.79a6 6 0 0 0 -5.035-6.834z"/><path d="m477.45 199h-35.45v-168.34c0-3.313-3.1-5.66-6.41-5.66h-424.52a5.78 5.78 0 0 0 -6.07 5.66v338.76c0 3.313 2.756 5.58 6.07 5.58h148.076l-15.395 55h-26.9a6 6 0 0 0 0 12h212.959a5.594 5.594 0 0 0 5.19-2.821v18.681a29.294 29.294 0 0 0 29.56 29.14h112.89a29.284 29.284 0 0 0 29.55-29.14v-229.7a29.3 29.3 0 0 0 -29.55-29.16zm-130.45 106.07v-48.07h148v163h-148zm148-76.91v16.84h-148v-16.84a17.3 17.3 0 0 1 17.56-17.16h112.89a17.289 17.289 0 0 1 17.55 17.16zm-478-191.16h413v162h-65.44a29.311 29.311 0 0 0 -29.56 29.16v64.84h-318zm0 268h318v58h-318zm154.608 70h103.453l15.386 55h-134.233zm158.2 55h-26.9l-15.386-55h47.478v58.441a6.147 6.147 0 0 0 -5.19-3.441zm147.64 45h-112.888a17.281 17.281 0 0 1 -17.56-17.14v-25.86h148v25.86a17.272 17.272 0 0 1 -17.55 17.14z"/><path d="m401.02 232h39.97a6 6 0 0 0 0-12h-39.97a6 6 0 0 0 0 12z"/><path d="m421.01 435.38a18.3 18.3 0 1 0 18.29 18.3 18.32 18.32 0 0 0 -18.29-18.3zm0 24.59a6.3 6.3 0 1 1 6.29-6.29 6.3 6.3 0 0 1 -6.29 6.29z"/><path d="m391.32 285h91.59a6 6 0 1 0 0-12h-91.59a6 6 0 1 0 0 12z"/><path d="m482.91 302h-91.59a6 6 0 1 0 0 12h91.59a6 6 0 1 0 0-12z"/><path d="m482.91 332h-91.59a6 6 0 1 0 0 12h91.59a6 6 0 1 0 0-12z"/><path d="m482.91 362h-91.59a6 6 0 1 0 0 12h91.59a6 6 0 1 0 0-12z"/><path d="m482.91 392h-91.59a6 6 0 1 0 0 12h91.59a6 6 0 1 0 0-12z"/><path d="m372.49 273h-13.38a6 6 0 0 0 0 12h13.38a6 6 0 0 0 0-12z"/><path d="m372.49 302h-13.38a6 6 0 0 0 0 12h13.38a6 6 0 0 0 0-12z"/><path d="m372.49 332h-13.38a6 6 0 0 0 0 12h13.38a6 6 0 0 0 0-12z"/><path d="m372.49 362h-13.38a6 6 0 0 0 0 12h13.38a6 6 0 0 0 0-12z"/><path d="m372.49 392h-13.38a6 6 0 0 0 0 12h13.38a6 6 0 0 0 0-12z"/></g></svg>