<svg id="Layer_1" height="512" viewBox="0 0 512 512" width="512" xmlns="http://www.w3.org/2000/svg" data-name="Layer 1"><path d="m428.99 107.04v382.96h-345.98v-468h264.25v85.04zm-92.91 105.43a98.58 98.58 0 1 0 -98.58 98.58 98.579 98.579 0 0 0 98.58-98.58z" fill="#00efd1"/><path d="m347.26 22 81.73 85.04h-81.73z" fill="#fedb41"/><circle cx="237.5" cy="212.47" fill="#00acea" r="98.58"/><g fill="#083863"><path d="m351.586 17.842a6 6 0 0 0 -4.326-1.842h-264.25a6.009 6.009 0 0 0 -6.01 6v468a6.009 6.009 0 0 0 6.01 6h345.98a6.009 6.009 0 0 0 6.01-6v-382.96a6.007 6.007 0 0 0 -1.679-4.158zm1.414 19.058 61.9 64.1h-61.9zm-264 447.1v-456h252v79.04a6.193 6.193 0 0 0 6.26 5.96h75.74v371z"/><path d="m365.59 408h-225.5a6 6 0 0 0 0 12h225.5a6 6 0 0 0 0-12z"/><path d="m140.09 353a6 6 0 0 0 0 12h130.63a6 6 0 0 0 0-12z"/><path d="m215.676 252.36a6 6 0 0 0 3.623-10.786l-38.43-29.054 38.43-29.054a6 6 0 0 0 -7.237-9.572l-44.762 33.84a6 6 0 0 0 0 9.572l44.761 33.84a5.97 5.97 0 0 0 3.615 1.214z"/><path d="m254.534 249.979a6 6 0 0 0 8.4 1.167l44.761-33.84a6 6 0 0 0 0-9.572l-44.761-33.84a6 6 0 0 0 -7.237 9.572l38.43 29.054-38.427 29.054a6 6 0 0 0 -1.166 8.405z"/><path d="m228.962 269.192a5.989 5.989 0 0 0 6.83-5.034l15.281-100.94a6 6 0 1 0 -11.865-1.8l-15.281 100.94a6 6 0 0 0 5.035 6.834z"/><path d="m237.5 317.05a104.58 104.58 0 1 0 -104.58-104.58 104.7 104.7 0 0 0 104.58 104.58zm0-197.16a92.58 92.58 0 1 1 -92.58 92.58 92.685 92.685 0 0 1 92.58-92.58z"/></g></svg>