<svg id="Layer_1" height="512" viewBox="0 0 512 512" width="512" xmlns="http://www.w3.org/2000/svg" data-name="Layer 1"><path d="m361.96 395.41h116.11v33.22h-116.11z" fill="#00acea"/><path d="m478.07 388.48v6.93h-116.11v-6.93a24 24 0 0 1 24-24h68.11a24.006 24.006 0 0 1 24 24z" fill="#fedb41"/><path d="m398.51 28.41v211.61h-285.02v-211.61zm-29.72 181.9v-152.19h-225.58v152.19z" fill="#00acea"/><path d="m143.21 58.12h225.58v152.19h-225.58z" fill="#00efd1"/><path d="m301.67 361.47v98.64a23.486 23.486 0 0 1 -23.49 23.48h-220.76a23.486 23.486 0 0 1 -23.49-23.48v-98.64a23.494 23.494 0 0 1 23.49-23.49h220.76a23.494 23.494 0 0 1 23.49 23.49zm-27.16 103.19v-25.54h-25.54v25.54zm0-41.1v-25.54h-25.54v25.54zm0-41.1v-25.54h-25.54v25.54zm-46.97 82.2v-25.54h-119.48v25.54zm0-41.1v-25.54h-25.54v25.54zm0-41.1v-25.54h-25.54v25.54zm-46.97 41.1v-25.54h-25.54v25.54zm0-41.1v-25.54h-25.54v25.54zm-46.97 41.1v-25.54h-25.54v25.54zm0-41.1v-25.54h-25.54v25.54zm-46.97 82.2v-25.54h-25.54v25.54zm0-41.1v-25.54h-25.54v25.54zm0-41.1v-25.54h-25.54v25.54z" fill="#00acea"/><path d="m248.97 439.12h25.54v25.54h-25.54z" fill="#00efd1"/><path d="m248.97 398.02h25.54v25.54h-25.54z" fill="#00efd1"/><path d="m248.97 356.92h25.54v25.54h-25.54z" fill="#00efd1"/><path d="m108.06 439.12h119.48v25.54h-119.48z" fill="#00efd1"/><path d="m202 398.02h25.54v25.54h-25.54z" fill="#00efd1"/><path d="m202 356.92h25.54v25.54h-25.54z" fill="#00efd1"/><path d="m155.03 398.02h25.54v25.54h-25.54z" fill="#00efd1"/><path d="m155.03 356.92h25.54v25.54h-25.54z" fill="#00efd1"/><path d="m108.06 398.02h25.54v25.54h-25.54z" fill="#00efd1"/><path d="m108.06 356.92h25.54v25.54h-25.54z" fill="#00efd1"/><path d="m61.09 439.12h25.54v25.54h-25.54z" fill="#00efd1"/><path d="m61.09 398.02h25.54v25.54h-25.54z" fill="#00efd1"/><path d="m61.09 356.92h25.54v25.54h-25.54z" fill="#00efd1"/><g fill="#083863"><path d="m404 28a6 6 0 0 0 -6-6h-285a6 6 0 0 0 -6 6v212a6 6 0 0 0 6 6h285a6 6 0 0 0 6-6zm-285 6h274v200h-274z"/><path d="m324.1 267h-136.53a6 6 0 0 0 0 12h136.53a6 6 0 0 0 0-12z"/><path d="m375 58a6 6 0 0 0 -6-6h-226a6 6 0 0 0 -6 6v152a6 6 0 0 0 6 6h226a6 6 0 0 0 6-6zm-12 146h-214v-140h214z"/><path d="m454.07 358h-68.11c-16.542 0-29.96 13.938-29.96 30.48v40.15a6.294 6.294 0 0 0 5.96 6.37h116.11c3.314 0 5.93-3.057 5.93-6.37v-40.15c0-16.542-13.388-30.48-29.93-30.48zm17.93 65h-104v-22h104zm-104-34v-.52c0-9.925 8.035-18.48 17.96-18.48h68.11c9.93 0 17.93 8.555 17.93 18.48v.52z"/><path d="m278.18 332h-104.18v-6.05c0-12.859-10.661-22.95-23.52-22.95h-61.65a11.519 11.519 0 0 1 -8.014-19.594 11.37 11.37 0 0 1 8.014-3.406h53.14a6 6 0 1 0 0-12h-53.14a23.213 23.213 0 0 0 -16.5 6.829 23.584 23.584 0 0 0 16.5 40.171h61.65c6.242 0 11.52 4.708 11.52 10.95v6.05h-104.58a29.446 29.446 0 0 0 -29.42 29.47v98.64c0 16.255 13.159 29.89 29.42 29.89h220.76a30.156 30.156 0 0 0 29.82-29.89v-98.64c0-16.261-13.56-29.47-29.82-29.47zm17.82 128.11a18.144 18.144 0 0 1 -17.82 17.89h-220.76c-9.645 0-17.42-8.251-17.42-17.89v-98.64a17.432 17.432 0 0 1 17.42-17.47h220.76a17.778 17.778 0 0 1 17.82 17.47z"/><path d="m187 398a6 6 0 0 0 -6-6h-26a6 6 0 0 0 -6 6v26a6 6 0 0 0 6 6h26a6 6 0 0 0 6-6zm-26 6h14v14h-14z"/><path d="m140 398a6 6 0 0 0 -6-6h-26a6 6 0 0 0 -6 6v26a6 6 0 0 0 6 6h26a6 6 0 0 0 6-6zm-26 6h14v14h-14z"/><path d="m93 398a6 6 0 0 0 -6-6h-26a6 6 0 0 0 -6 6v26a6 6 0 0 0 6 6h26a6 6 0 0 0 6-6zm-12 20h-14v-14h14z"/><path d="m234 398a6 6 0 0 0 -6-6h-26a6 6 0 0 0 -6 6v26a6 6 0 0 0 6 6h26a6 6 0 0 0 6-6zm-12 20h-14v-14h14z"/><path d="m281 398a6 6 0 0 0 -6-6h-26a6 6 0 0 0 -6 6v26a6 6 0 0 0 6 6h26a6 6 0 0 0 6-6zm-12 20h-14v-14h14z"/><path d="m187 357a6 6 0 0 0 -6-6h-26a6 6 0 0 0 -6 6v26a6 6 0 0 0 6 6h26a6 6 0 0 0 6-6zm-26 6h14v13h-14z"/><path d="m140 357a6 6 0 0 0 -6-6h-26a6 6 0 0 0 -6 6v26a6 6 0 0 0 6 6h26a6 6 0 0 0 6-6zm-26 6h14v13h-14z"/><path d="m93 357a6 6 0 0 0 -6-6h-26a6 6 0 0 0 -6 6v26a6 6 0 0 0 6 6h26a6 6 0 0 0 6-6zm-12 19h-14v-13h14z"/><path d="m234 357a6 6 0 0 0 -6-6h-26a6 6 0 0 0 -6 6v26a6 6 0 0 0 6 6h26a6 6 0 0 0 6-6zm-12 19h-14v-13h14z"/><path d="m281 357a6 6 0 0 0 -6-6h-26a6 6 0 0 0 -6 6v26a6 6 0 0 0 6 6h26a6 6 0 0 0 6-6zm-12 19h-14v-13h14z"/><path d="m93 439a6 6 0 0 0 -6-6h-26a6 6 0 0 0 -6 6v26a6 6 0 0 0 6 6h26a6 6 0 0 0 6-6zm-12 20h-14v-14h14z"/><path d="m233 439a6 6 0 0 0 -6-6h-119a6 6 0 0 0 -6 6v26a6 6 0 0 0 6 6h119a6 6 0 0 0 6-6zm-11 20h-108v-14h108z"/><path d="m281 439a6 6 0 0 0 -6-6h-26a6 6 0 0 0 -6 6v26a6 6 0 0 0 6 6h26a6 6 0 0 0 6-6zm-12 20h-14v-14h14z"/><path d="m181.871 138.835 47.4 35.841a6 6 0 0 0 7.238-9.572l-41.071-31.054 41.071-31.05a6 6 0 1 0 -7.238-9.572l-47.4 35.84a6 6 0 0 0 0 9.571z"/><path d="m274.324 173.509a6 6 0 0 0 8.4 1.167l47.4-35.841a6 6 0 0 0 0-9.571l-47.4-35.84a6 6 0 0 0 -7.233 9.576l41.071 31.054-41.071 31.046a6 6 0 0 0 -1.167 8.409z"/><path d="m247.012 193.712a5.991 5.991 0 0 0 6.831-5.034l16.179-106.89a6 6 0 0 0 -11.865-1.8l-16.179 106.89a6 6 0 0 0 5.034 6.834z"/></g></svg>