<svg id="Layer_1" height="512" viewBox="0 0 512 512" width="512" xmlns="http://www.w3.org/2000/svg" data-name="Layer 1"><path d="m236.92 325.93h24.59 72.31 148.5v75h-166.32-120-166.32v-75h148.73z" fill="#00acea"/><path d="m178.18 149.42.19 148.12.04 28.39h-148.73v-286.19h452.64v286.19h-148.5v-230.97h-72.31v230.97h-24.59l.04-28.39.19-148.12-29.49-59.1z" fill="#00efd1"/><path d="m316 400.93 20 71.33h-160l20-71.33z" fill="#f4b844"/><path d="m261.51 94.96h72.31v230.97h-72.31z" fill="#fedb41"/><path d="m207.66 90.32 29.49 59.1h-.05-58.92z" fill="#f4b844"/><path d="m237.15 149.42-.19 148.12h-.27-58.28-.04l-.19-148.12h58.92z" fill="#fedb41"/><path d="m236.96 297.54-.04 28.39h-58.51l-.04-28.39h.04 58.28z" fill="#f4b844"/><path d="m482.32 34h-452.64a5.517 5.517 0 0 0 -5.68 5.74v361.19a5.8 5.8 0 0 0 5.68 6.07h158.406l-16.635 59h-28.981a6 6 0 0 0 0 12h227.06a6 6 0 0 0 0-12h-28.981l-16.635-59h158.406a5.8 5.8 0 0 0 5.68-6.07v-361.19a5.517 5.517 0 0 0 -5.68-5.74zm-154.234 432h-144.172l16.635-59h110.9zm147.914-71h-440v-63h440zm-291.812-240h46.955l-.175 137h-46.6zm3.69-12 19.783-39.66 19.79 39.66zm-3.5 161h46.57l-.022 16h-46.526zm83.622-18h7.99a6 6 0 0 0 0-12h-7.99v-20h18.4a6 6 0 0 0 0-12h-18.4v-20h7.95a6 6 0 0 0 0-12h-7.95v-20h18.4a6 6 0 0 0 0-12h-18.4v-19h7.99a6 6 0 0 0 0-12h-7.99v-20h18.37a6 6 0 0 0 0-12h-18.37v-14h60v219h-60zm72 34v-225.04a6.122 6.122 0 0 0 -6.18-5.96h-72.31c-3.31 0-5.51 2.646-5.51 5.96v225.04h-13.072l.222-170.537a6.076 6.076 0 0 0 -.63-2.7l-29.491-59.113a6 6 0 0 0 -10.738-.006l-29.48 59.1a6 6 0 0 0 -.631 2.685l.19 148.156.03 22.415h-136.4v-274h440v274z" fill="#083863"/></svg>