<svg id="Layer_1" height="512" viewBox="0 0 512 512" width="512" xmlns="http://www.w3.org/2000/svg" data-name="Layer 1"><path d="m305.96 267.06a117.817 117.817 0 1 1 -89.91 114.4 116.842 116.842 0 0 1 89.91-114.4z" fill="#00efd1"/><path d="m202.97 184.29a105.669 105.669 0 0 1 102.99 82.77 117.817 117.817 0 0 0 -87.64 137.48h-157.8v-114.78a105.649 105.649 0 0 1 105.83-105.47z" fill="#00acea"/><path d="m256.29 84.64v.04a71.773 71.773 0 0 1 -71.74 71.77h-.06a71.79 71.79 0 0 1 -71.81-71.75v-.1a71.773 71.773 0 0 1 71.74-71.77h.11a71.758 71.758 0 0 1 71.76 71.74z" fill="#00acea"/><g fill="#083863"><path d="m184.473 162h.08a77.224 77.224 0 0 0 77.447-77.32v-.112a77.451 77.451 0 0 0 -77.47-77.568h-.113a77.437 77.437 0 0 0 -77.417 77.6v.1a77.209 77.209 0 0 0 77.473 77.3zm-.05-143.17v-6l.11 6a65.836 65.836 0 0 1 65.76 65.741h6l-6-.115a65.65 65.65 0 0 1 -65.743 65.544h-.077a65.585 65.585 0 1 1 -.05-131.17z"/><path d="m333.76 257.74a123.758 123.758 0 0 0 -23.406 2.234 111.872 111.872 0 0 0 -107.384-81.974h-36.805c-61.465 0-111.165 50.252-111.165 111.76v114.78c0 3.314 2.206 6.46 5.52 6.46h152.98c13.27 55 63.066 94.4 120.259 94.4 68.219 0 123.72-55.611 123.72-123.825s-55.5-123.835-123.719-123.835zm-266.76 32.03c0-54.891 44.3-99.77 99.176-99.77h36.784a99.918 99.918 0 0 1 95.727 72.748 124.454 124.454 0 0 0 -61.72 41.626 123.074 123.074 0 0 0 -26.917 77.3 132.54 132.54 0 0 0 1.183 17.326h-144.233zm266.76 203.4a111.628 111.628 0 0 1 -111.71-111.71 110.508 110.508 0 0 1 24.3-69.57 112.191 112.191 0 0 1 61.02-39h.015a111.72 111.72 0 1 1 26.375 220.28z"/><path d="m310.276 337.851a6 6 0 0 0 -8.425-1.007l-50.18 39.46a6 6 0 0 0 0 9.433l50.18 39.45a6 6 0 0 0 7.416-9.434l-44.18-34.733 44.182-34.744a6 6 0 0 0 1.007-8.425z"/><path d="m355.724 337.851a6 6 0 0 0 1.007 8.425l44.182 34.744-44.181 34.733a6 6 0 1 0 7.416 9.434l50.18-39.45a6 6 0 0 0 0-9.433l-50.18-39.46a6 6 0 0 0 -8.424 1.007z"/><path d="m342.809 316.568a5.992 5.992 0 0 0 -6.831 5.034l-17.821 117.68a6 6 0 0 0 5.034 6.831 6.079 6.079 0 0 0 .907.068 6 6 0 0 0 5.924-5.1l17.821-117.681a6 6 0 0 0 -5.034-6.832z"/></g></svg>