<svg id="Layer_1" height="512" viewBox="0 0 512 512" width="512" xmlns="http://www.w3.org/2000/svg" data-name="Layer 1"><path d="m428.99 107.04v382.96h-345.98v-468h264.25v85.04zm-36.31 198.98v-40.04l-29.75-2.88a106.7 106.7 0 0 0 -15.42-36.48l18.99-22.9-27.96-28.25-22.9 18.99a109.912 109.912 0 0 0 -36.54-15.36l-2.88-29.69h-40.1l-2.88 29.69a106.942 106.942 0 0 0 -36.53 15.36l-22.9-18.99-28.31 28.25 18.99 22.9a110.662 110.662 0 0 0 -15.42 36.48l-29.75 2.88v40.04l29.75 2.88a106.7 106.7 0 0 0 15.42 36.48l-18.99 22.9 28.31 28.25 22.9-18.99a109.773 109.773 0 0 0 36.53 15.36l2.88 29.69h40.1l2.88-29.69a106.909 106.909 0 0 0 36.54-15.36l22.9 18.99 28.31-28.25-18.99-22.9a110.873 110.873 0 0 0 15.42-36.48z" fill="#00efd1"/><path d="m347.26 22 81.73 85.04h-81.73z" fill="#fedb41"/><path d="m392.68 265.98v40.04l-29.4 2.88a110.873 110.873 0 0 1 -15.42 36.48l18.99 22.9-28.31 28.25-22.9-18.99a106.909 106.909 0 0 1 -36.54 15.36l-2.88 29.69h-40.1l-2.88-29.69a109.773 109.773 0 0 1 -36.53-15.36l-22.9 18.99-28.31-28.25 18.99-22.9a106.7 106.7 0 0 1 -15.42-36.48l-29.75-2.88v-40.04l29.75-2.88a110.662 110.662 0 0 1 15.42-36.48l-18.99-22.9 28.31-28.25 22.9 18.99a106.942 106.942 0 0 1 36.53-15.36l2.88-29.69h40.1l2.88 29.69a109.912 109.912 0 0 1 36.54 15.36l22.9-18.99 27.96 28.25-18.99 22.9a106.7 106.7 0 0 1 15.42 36.48zm-56.27 20.02a80.38 80.38 0 1 0 -80.38 80.26 80.319 80.319 0 0 0 80.38-80.26z" fill="#00acea"/><ellipse cx="256.03" cy="286" fill="#fedb41" rx="80.38" ry="80.26"/><g fill="#083863"><path d="m351.586 17.842a6 6 0 0 0 -4.326-1.842h-264.25a6.009 6.009 0 0 0 -6.01 6v468a6.009 6.009 0 0 0 6.01 6h345.98a6.009 6.009 0 0 0 6.01-6v-382.96a6.007 6.007 0 0 0 -1.679-4.158zm1.414 19.058 61.9 64.1h-61.9zm-264 447.1v-456h252v79.04a6.193 6.193 0 0 0 6.26 5.96h75.74v371z"/><path d="m393.418 260.008-25.564-2.467a112.266 112.266 0 0 0 -12.895-30.457l16.18-19.534a6 6 0 0 0 -.364-8.05l-27.965-28.25a6.006 6.006 0 0 0 -8.1-.4l-19.581 16.236a116.018 116.018 0 0 0 -30.473-12.843l-2.465-25.619a6.184 6.184 0 0 0 -5.971-5.624h-40.1a6.183 6.183 0 0 0 -5.972 5.626l-2.465 25.517a112.421 112.421 0 0 0 -30.5 12.864l-19.543-16.181a6 6 0 0 0 -8.068.384l-28.31 28.257a6 6 0 0 0 -.381 8.08l16.219 19.565a116.27 116.27 0 0 0 -12.861 30.427l-25.661 2.468a6.143 6.143 0 0 0 -5.578 5.973v40.04a6.142 6.142 0 0 0 5.582 5.972l25.564 2.467a112.266 112.266 0 0 0 12.9 30.457l-16.18 19.534a6 6 0 0 0 .391 8.077l28.315 28.25a6 6 0 0 0 8.071.371l19.58-16.235a115.862 115.862 0 0 0 30.464 12.843l2.466 25.618a6.183 6.183 0 0 0 5.967 5.626h40.1a6.182 6.182 0 0 0 5.972-5.626l2.465-25.516a112.478 112.478 0 0 0 30.51-12.865l19.543 16.181a6 6 0 0 0 8.068-.384l28.31-28.257a6 6 0 0 0 .381-8.08l-16.223-19.565a116.465 116.465 0 0 0 12.859-30.431l25.32-2.465a6.143 6.143 0 0 0 5.575-5.972v-40.04a6.142 6.142 0 0 0 -5.582-5.972zm-6.418 40.571-24.145 2.35a6.091 6.091 0 0 0 -5.355 4.671 104.759 104.759 0 0 1 -14.628 34.5 6 6 0 0 0 .389 7.106l15.488 18.694-20.577 20.528-18.7-15.5a6 6 0 0 0 -7.142-.385 100.572 100.572 0 0 1 -34.491 14.5 6.241 6.241 0 0 0 -4.712 5.492l-2.353 24.465h-29.208l-2.354-24.474a6.12 6.12 0 0 0 -4.721-5.392 104.1 104.1 0 0 1 -34.535-14.589 6 6 0 0 0 -7.076.4l-18.7 15.492-20.569-20.537 15.5-18.691a6 6 0 0 0 .375-7.157 100.4 100.4 0 0 1 -14.551-34.432 6.19 6.19 0 0 0 -5.445-4.7l-24.49-2.347v-29.146l24.488-2.355a6.094 6.094 0 0 0 5.36-4.674 104.553 104.553 0 0 1 14.63-34.5 6 6 0 0 0 -.389-7.106l-15.489-18.692 20.577-20.528 18.7 15.5a6 6 0 0 0 7.142.385 100.583 100.583 0 0 1 34.482-14.5 6.239 6.239 0 0 0 4.711-5.492l2.354-24.465h29.208l2.354 24.474a6.12 6.12 0 0 0 4.722 5.392 104.256 104.256 0 0 1 34.546 14.59 6 6 0 0 0 7.074-.4l18.671-15.47 20.269 20.484-15.519 18.717a6 6 0 0 0 -.375 7.157 100.4 100.4 0 0 1 14.551 34.432 6.19 6.19 0 0 0 5.445 4.7l24.488 2.351z"/><path d="m256.03 199.74a86.26 86.26 0 1 0 86.38 86.26 86.418 86.418 0 0 0 -86.38-86.26zm0 160.52a74.26 74.26 0 1 1 74.38-74.26 74.4 74.4 0 0 1 -74.38 74.26z"/><path d="m239.576 255.321a6 6 0 0 0 -8.405-1.167l-35.49 26.84a6 6 0 0 0 0 9.571l35.49 26.841a6 6 0 1 0 7.238-9.572l-29.162-22.054 29.162-22.054a6 6 0 0 0 1.167-8.405z"/><path d="m272.484 255.321a6 6 0 0 0 1.167 8.405l29.162 22.054-29.162 22.054a6 6 0 1 0 7.238 9.572l35.49-26.841a6 6 0 0 0 0-9.571l-35.49-26.84a6 6 0 0 0 -8.405 1.167z"/><path d="m262.947 240.038a6 6 0 0 0 -6.83 5.035l-12.11 80.059a6 6 0 0 0 5.035 6.83 6.065 6.065 0 0 0 .905.069 6 6 0 0 0 5.926-5.1l12.109-80.059a6 6 0 0 0 -5.035-6.834z"/></g></svg>