<svg id="Layer_1" height="512" viewBox="0 0 512 512" width="512" xmlns="http://www.w3.org/2000/svg" data-name="Layer 1"><path d="m423.34 178c0 63.87-40.22 119.15-98.58 144.33v34.19h-138.16v-34.19c-57.72-25.18-97.94-80.46-97.94-144.33 0-87.82 75.24-158.44 167.34-158.44s167.34 70.62 167.34 158.44zm-49.21.22a118.13 118.13 0 1 0 -118.13 118.13 118.123 118.123 0 0 0 118.13-118.13z" fill="#00acea"/><path d="m256 60.1a118.125 118.125 0 1 1 -118.13 118.12 118.123 118.123 0 0 1 118.13-118.12z" fill="#00efd1"/><path d="m186.6 425.87h138.16v31.04h-138.16z" fill="#f4b844"/><path d="m186.6 391.19h138.16v34.68h-138.16z" fill="#fedb41"/><path d="m186.6 356.52h138.16v34.67h-138.16z" fill="#f4b844"/><g fill="#083863"><path d="m256 13.56c-95.58 0-173.14 73.768-173.14 164.44 0 62.853 38.14 120.613 98.14 148.211v24.789h-21.55a6 6 0 0 0 0 12h21.55v22h-21.55a6 6 0 0 0 0 12h21.55v23h-21.55a6 6 0 0 0 0 12h21.55v24.91c0 3.314 2.286 6.09 5.6 6.09h138.16a6.287 6.287 0 0 0 6.24-6.09v-24.91h21.55a6 6 0 0 0 0-12h-21.55v-23h21.55a6 6 0 0 0 0-12h-21.55v-22h21.55a6 6 0 0 0 0-12h-21.55v-24.771c28-13.046 52.562-33.08 69.981-58.13a157.152 157.152 0 0 0 28.419-90.099c0-90.672-77.82-164.44-173.4-164.44zm63 437.44h-126v-19h126zm0-31h-126v-23h126zm0-35h-126v-22h126zm72.009-123.751a160.486 160.486 0 0 1 -68.509 55.572 5.892 5.892 0 0 0 -3.5 5.509v28.67h-126v-28.67a6.19 6.19 0 0 0 -3.8-5.5c-57.308-25-94.439-79.5-94.439-138.831 0-84.056 72.327-152.44 161.29-152.44s161.314 68.385 161.314 152.441a145.3 145.3 0 0 1 -26.356 83.249z"/><path d="m312.27 486h-112.54a6 6 0 0 0 0 12h112.54a6 6 0 0 0 0-12z"/><path d="m256 54.1a124.125 124.125 0 1 0 124.13 124.12 124.266 124.266 0 0 0 -124.13-124.12zm0 236.25a112.125 112.125 0 1 1 112.13-112.13 112.257 112.257 0 0 1 -112.13 112.13z"/><path d="m232.407 134.481a6 6 0 0 0 -8.426-1.008l-50.35 39.59a6 6 0 0 0 0 9.433l50.35 39.6a6 6 0 0 0 7.418-9.432l-44.353-34.884 44.354-34.873a6 6 0 0 0 1.007-8.426z"/><path d="m278.063 134.481a6 6 0 0 0 1.008 8.426l44.353 34.873-44.353 34.884a6 6 0 1 0 7.418 9.432l50.35-39.6a6 6 0 0 0 0-9.433l-50.35-39.59a6 6 0 0 0 -8.426 1.008z"/><path d="m265.067 113.127a6.009 6.009 0 0 0 -6.83 5.035l-17.87 118.09a6 6 0 0 0 5.035 6.831 6.191 6.191 0 0 0 .906.068 6 6 0 0 0 5.924-5.1l17.868-118.093a6 6 0 0 0 -5.033-6.831z"/></g></svg>