<svg id="Layer_1" height="512" viewBox="0 0 512 512" width="512" xmlns="http://www.w3.org/2000/svg" data-name="Layer 1"><path d="m254.15 468.7c-.06-.07-.1-.15-.15-.22v-68.33h23.34l3.04-31.34a112.691 112.691 0 0 0 38.55-16.21l24.17 20.04 29.87-29.81-20.03-24.17a117.117 117.117 0 0 0 16.27-38.49l31.03-3.04v-42.26l-31.39-3.04c-.76-3.48-1.68-6.93-2.76-10.32 21.44-11 48.55-12.24 71.24-2.05a73.353 73.353 0 0 1 6.84 3.49c32.84 18.98 45.32 58.41 23.48 87.8 3.26 1.38 25.75 14.3 31.06 33.65 5.46 19.91-9.71 38.68-33.74 49.69 11.39 17.74 8.62 38.54-2.99 52.09-16.78 19.59-51.71 20.66-74.95 9.27l-.07.14a49.611 49.611 0 0 1 -26.3 10.46c-15.64 1.22-28.09-5.8-32.65-8.72-2.94 6.51-13.05 25.65-30.4 28.05-18.32 2.53-38.24-8.74-43.46-16.68z" fill="#00efd1"/><path d="m254.19 44.67c14.02-14.44 37.14-21.19 57.53-17.28 25.6 4.92 45.8 25.96 46.13 50.86a62.4 62.4 0 0 1 33.46 10.36c20.38 13.41 24.97 38.8 19.45 57.05a50.976 50.976 0 0 1 -8.98 16.85s47.49 8.11 35.9 56.18l-.35.77c-22.69-10.19-49.8-8.95-71.24 2.05a112.57 112.57 0 0 0 -13.52-28.17l20.04-24.17-29.51-29.81-24.17 20.04a115.8 115.8 0 0 0 -38.55-16.21l-3.04-31.34h-23.34v-66.99c.06-.06.12-.13.19-.19z" fill="#00acea"/><path d="m254 111.85h23.34l3.04 31.34a115.8 115.8 0 0 1 38.55 16.21l24.17-20.04 29.51 29.81-20.04 24.17a112.57 112.57 0 0 1 13.52 28.17c1.08 3.39 2 6.84 2.76 10.32l31.39 3.04v42.26l-31.03 3.04a117.117 117.117 0 0 1 -16.27 38.49l20.03 24.17-29.87 29.81-24.17-20.04a112.691 112.691 0 0 1 -38.55 16.21l-3.04 31.34h-42.32l-3.03-31.34a115.853 115.853 0 0 1 -38.56-16.21l-24.17 20.04-29.87-29.81 20.04-24.17a112.751 112.751 0 0 1 -16.28-38.49l-31.39-3.04v-42.26l31.39-3.04q1.155-5.22 2.8-10.3h.01a117.75 117.75 0 0 1 13.47-28.19l-20.04-24.17 29.87-29.81 24.17 20.04a112.74 112.74 0 0 1 38.56-16.21l3.03-31.34zm84.06 144.15a82.03 82.03 0 1 0 -82.03 81.91 81.971 81.971 0 0 0 82.03-81.91z" fill="#f4b844"/><ellipse cx="256.03" cy="256" fill="#fedb41" rx="82.03" ry="81.91"/><path d="m153.96 78.25v-.01c.31-24.93 18.79-45.97 44.41-50.89 20.39-3.91 42.7 2.88 55.82 17.32-.07.06-.13.13-.19.19v66.99h-18.98l-3.03 31.34a112.74 112.74 0 0 0 -38.56 16.21l-24.17-20.04-29.87 29.81 20.04 24.17a117.75 117.75 0 0 0 -13.47 28.19h-.01c-21.46-11.02-48.57-12.27-71.28-2.07l-.35-.77c-11.59-48.07 35.9-56.18 35.9-56.18a50.976 50.976 0 0 1 -8.98-16.85c-5.52-18.25-.93-43.64 19.45-57.05a62.513 62.513 0 0 1 33.27-10.36z" fill="#00efd1"/><path d="m124.53 455.66c-23.24 11.16-57.83 9.98-74.51-9.48-11.61-13.55-14.38-34.35-2.99-52.09-24.03-11.01-39.2-29.78-33.74-49.69 5.31-19.35 27.8-32.27 31.06-33.65-21.84-29.39-9.36-68.82 23.48-87.8a73.353 73.353 0 0 1 6.84-3.49c22.71-10.2 49.82-8.95 71.28 2.07q-1.635 5.07-2.8 10.3l-31.39 3.04v42.26l31.39 3.04a112.751 112.751 0 0 0 16.28 38.49l-20.04 24.17 29.87 29.81 24.17-20.04a115.853 115.853 0 0 0 38.56 16.21l3.03 31.34h18.98v68.33c.05.07.09.15.15.22-7.72 7.94-23.26 19.21-41.57 16.68-17.36-2.4-26.56-21.54-29.5-28.05-4.56 2.92-16.56 9.94-32.19 8.72a49.01 49.01 0 0 1 -26.25-10.16z" fill="#00acea"/><g fill="#083863"><path d="m183.966 378.968a6 6 0 1 0 -3.912 11.344c5.947 2.051 19.694 7.71 18.913 15.947-.261 2.782-1.191 6.491-3.018 8.563a6 6 0 0 0 9 7.936c4.4-4.993 5.625-11.778 5.963-15.371 1.53-16.114-16.225-24.722-26.946-28.419z"/><path d="m476.2 308.715a59.817 59.817 0 0 0 7.088-42.925c-4.053-19.605-17.215-37.113-36.108-48.033-.927-.536-1.883-1.042-2.84-1.545 2.713-14.42.683-26.918-6.081-37.185-7.459-11.321-18.954-17.168-26.829-20.013a54.58 54.58 0 0 0 5.07-11.614c6-19.84 1.71-48.268-21.9-63.8a68.7 68.7 0 0 0 -31.142-11.027c-2.986-24.842-23.438-45.854-50.608-51.073-20.39-3.91-43.129 2.027-58.526 14.886-14.724-13.061-36.457-18.886-57.086-14.928-26.738 5.134-46.153 25.762-48.932 51.135a68.832 68.832 0 0 0 -30.913 11c-23.606 15.536-27.893 43.964-21.893 63.807a54.532 54.532 0 0 0 5.077 11.615c-7.875 2.845-19.37 8.692-26.829 20.013-6.764 10.267-8.794 22.765-6.081 37.186-.956.5-1.912 1.007-2.837 1.542-18.9 10.922-32.058 28.43-36.111 48.035a59.817 59.817 0 0 0 7.088 42.925c-8.931 5.741-23.838 17.832-28.3 34.1-5.561 20.278 6.337 40.509 31.234 53.859-8.459 17.751-6.043 38.509 6.726 53.413 8.749 10.206 22.516 16.7 38.767 18.289 2.591.253 5.212.378 7.845.378a83.6 83.6 0 0 0 31.612-6.153 55.021 55.021 0 0 0 26.735 9.433 56.525 56.525 0 0 0 30.1-6.329c10.175 18.85 22.406 24.4 31.234 25.62a44.5 44.5 0 0 0 6.1.42c15.924 0 28.818-8.521 35.92-14.521a56.673 56.673 0 0 0 14.77 9.234 59.646 59.646 0 0 0 23.745 5.278 44.909 44.909 0 0 0 6.141-.411c16.314-2.257 26.88-16.53 32.067-25.683a58.46 58.46 0 0 0 30.628 6.392 54.889 54.889 0 0 0 26.671-9.648 83.605 83.605 0 0 0 32.062 6.3c17.781 0 35.553-5.617 46.676-18.6 12.768-14.9 15.184-35.661 6.725-53.412 24.9-13.35 36.8-33.581 31.234-53.86-4.466-16.268-19.373-28.359-28.299-34.1zm-165.613-275.433c21.478 4.128 37.769 20.164 40.767 39.187-17.758 1.388-35.115 9.586-49.47 23.5a6 6 0 0 0 8.351 8.616c13.643-13.224 30.249-20.416 46.852-20.332a5.584 5.584 0 0 0 1.408.018 56.641 56.641 0 0 1 29.517 9.348c17.641 11.608 21.908 34.091 17.006 50.3a44.77 44.77 0 0 1 -7.936 14.857 6 6 0 0 0 3.689 9.646c.181.031 18.278 3.265 27.461 17.2 4.581 6.954 6.164 15.571 4.752 25.665a90.954 90.954 0 0 0 -63.419 2.012 118.5 118.5 0 0 0 -9.584-19.5l17.248-20.799a6 6 0 0 0 -.355-8.051l-29.511-29.81a6 6 0 0 0 -8.093-.4l-20.846 17.284a121.9 121.9 0 0 0 -32.487-13.7l-2.625-26.982a5.936 5.936 0 0 0 -5.972-5.341h-17.34v-58.631c12.641-11.88 32.669-17.522 50.587-14.087zm37.733 289.207 16.539 19.958-22.133 22.089-19.966-16.555a6 6 0 0 0 -7.142-.384 106.264 106.264 0 0 1 -36.5 15.347 5.913 5.913 0 0 0 -4.713 5.212l-2.511 25.844h-16.576c-.424 0-.865-.15-1.318-.15s-.894.15-1.318.15h-12.214l-2.5-25.842a5.957 5.957 0 0 0 -4.725-5.254 110.058 110.058 0 0 1 -36.565-15.37 6 6 0 0 0 -7.073.438l-19.966 16.559-22.139-22.086 16.548-19.956a6 6 0 0 0 .376-7.154 106.424 106.424 0 0 1 -15.412-36.444 5.865 5.865 0 0 0 -5.164-4.693l-25.848-2.515v-31.366l25.849-2.515a5.93 5.93 0 0 0 5.22-4.677c.691-3.128 1.521-6.3 2.523-9.446.039-.1.06-.2.094-.309a111.756 111.756 0 0 1 12.778-26.753 6 6 0 0 0 -.411-7.107l-16.553-19.958 22.132-22.088 19.968 16.555a6 6 0 0 0 7.139.386 106.367 106.367 0 0 1 36.509-15.348 5.918 5.918 0 0 0 4.715-5.215l2.5-25.842h12.214c.424 0 .865.15 1.318.15s.894-.15 1.318-.15h16.576l2.514 25.844a5.957 5.957 0 0 0 4.723 5.252 109.93 109.93 0 0 1 36.554 15.37 6 6 0 0 0 7.075-.438l19.945-16.538 21.821 22.039-16.57 19.982a6 6 0 0 0 -.377 7.152 106.666 106.666 0 0 1 12.8 26.668c1.012 3.176 1.892 6.466 2.614 9.779a5.865 5.865 0 0 0 5.164 4.692l25.848 2.515v31.372l-25.5 2.51a5.93 5.93 0 0 0 -5.212 4.668 110.836 110.836 0 0 1 -15.411 36.519 6 6 0 0 0 .443 7.103zm-264.601-136.789c9.089-13.883 27.344-17.249 27.51-17.279a6 6 0 0 0 3.689-9.646 44.76 44.76 0 0 1 -7.935-14.855c-4.9-16.21-.636-38.693 17-50.3a56.748 56.748 0 0 1 30.092-9.375c16.858-.345 33.806 6.89 47.688 20.34a6 6 0 1 0 8.349-8.618c-14.427-13.98-31.86-22.166-49.7-23.513 2.793-19.473 18.14-35.194 39.082-39.215 17.551-3.365 36.68 2.1 48.5 13.658v59.103h-12.974a5.935 5.935 0 0 0 -5.972 5.348l-2.615 27.018a118.13 118.13 0 0 0 -32.533 13.648l-20.81-17.263a6 6 0 0 0 -8.069.366l-29.87 29.808a6 6 0 0 0 -.38 8.076l17.271 20.829a123.953 123.953 0 0 0 -9.541 19.5 90.957 90.957 0 0 0 -63.485-2.041c-1.407-10.054.159-18.646 4.703-25.589zm129.681 293.737c-9.6-1.328-18.192-9.826-24.852-24.576a6 6 0 0 0 -8.7-2.584c-9.12 5.84-18.971 8.533-28.488 7.791a42.89 42.89 0 0 1 -15.372-4.175c1.049-.739 2.067-1.5 3.03-2.285a51.723 51.723 0 0 0 17.413-28.1 6 6 0 0 0 -11.657-2.856 39.276 39.276 0 0 1 -13.352 21.665 47.123 47.123 0 0 1 -9.486 5.934c-20.706 9.942-52.713 9.11-67.357-7.975-10.721-12.512-11.723-30.574-2.5-44.944a6 6 0 0 0 -2.55-8.7c-27.607-12.646-33.829-30.321-30.453-42.644 4.553-16.588 24.724-28.488 27.612-29.713a6 6 0 0 0 2.477-9.1 48.184 48.184 0 0 1 -8.7-38.952c3.36-16.257 14.427-30.864 30.366-40.075a67.822 67.822 0 0 1 6.293-3.211c19.021-8.543 42.184-8.517 61.607-.165-.137.5-.284 1-.415 1.5l-27.016 2.628a5.9 5.9 0 0 0 -5.3 5.972v42.26a5.9 5.9 0 0 0 5.3 5.972l27.061 2.627a118.159 118.159 0 0 0 13.685 32.47l-17.26 20.799a5.982 5.982 0 0 0 -1.115 2.064c-.56-.247-1.118-.506-1.667-.782a6 6 0 0 0 -2.08-1.128 39.6 39.6 0 0 1 -18.824-26.187 6 6 0 0 0 -11.744 2.466 51.869 51.869 0 0 0 14.241 26.23c-6.217 2.859-11.017 7.73-13.061 13.857-2.748 8.23.007 17.3 7.19 23.669a6 6 0 1 0 7.962-8.978c-3.525-3.126-4.969-7.3-3.769-10.892 1.615-4.844 7.658-8.35 14.419-8.459a48.016 48.016 0 0 0 17.707 5.1l20.973 20.931a6 6 0 0 0 8.069.372l20.847-17.285a122.03 122.03 0 0 0 32.5 13.7l2.615 26.98a5.935 5.935 0 0 0 5.971 5.342h12.98v60.32c-5.632 5.237-18.763 15.304-34.6 13.117zm249.07-90.8a6 6 0 0 0 -2.55 8.7c9.226 14.37 8.224 32.432-2.5 44.945-14.793 17.27-46.975 17.968-67.756 7.784a47.229 47.229 0 0 1 -9.093-5.749 39.27 39.27 0 0 1 -13.346-21.66 6 6 0 0 0 -11.657 2.856 51.723 51.723 0 0 0 17.416 28.1q1.291 1.051 2.676 2.042a41.609 41.609 0 0 1 -15.471 4.416c-13 1.018-23.722-4.445-28.948-7.791a6 6 0 0 0 -8.7 2.584c-9.391 20.8-22.086 24.068-25.752 24.576-14.968 2.06-31.56-6.824-36.78-12.923 0-.009-.006-.019-.009-.028v-60.489h17.34a5.936 5.936 0 0 0 5.972-5.346l2.625-27.02a117.988 117.988 0 0 0 32.524-13.647l20.809 17.262a6 6 0 0 0 8.068-.366l21.008-20.963a48.044 48.044 0 0 0 17.311-5.06c6.739.114 12.806 3.615 14.421 8.46 1.2 3.592-.244 7.765-3.769 10.891a6 6 0 1 0 7.962 8.978c7.183-6.37 9.938-15.44 7.19-23.668-2.043-6.122-6.854-10.992-13.067-13.853a51.861 51.861 0 0 0 14.248-26.235 6 6 0 0 0 -11.745-2.466 39.594 39.594 0 0 1 -18.822 26.188 5.992 5.992 0 0 0 -2.075 1.127c-.444.223-.893.435-1.345.64a5.975 5.975 0 0 0 -1.065-1.922l-17.263-20.83a122.73 122.73 0 0 0 13.713-32.444l26.665-2.625a5.9 5.9 0 0 0 5.3-5.971v-42.26a5.9 5.9 0 0 0 -5.3-5.972l-27.062-2.627c-.13-.507-.244-1.008-.381-1.512 19.413-8.344 42.586-8.366 61.615.18a67.893 67.893 0 0 1 6.29 3.206c15.936 9.21 27.007 23.817 30.367 40.074a48.183 48.183 0 0 1 -8.694 38.952 6 6 0 0 0 2.478 9.1c2.887 1.222 23.06 13.121 27.613 29.712 3.369 12.328-2.853 30.003-30.46 42.652z"/><path d="m328.034 378.968c-17.305 5.968-28.134 18.377-26.948 30.872a22.954 22.954 0 0 0 5.963 12.918 6 6 0 0 0 9-7.936 11.151 11.151 0 0 1 -3.018-6.109c-.543-5.715 5.78-13.871 18.913-18.4a6 6 0 0 0 -3.912-11.344z"/><path d="m256.03 168.09a87.91 87.91 0 1 0 88.03 87.91 88.069 88.069 0 0 0 -88.03-87.91zm0 163.82a75.91 75.91 0 1 1 76.03-75.91 76.056 76.056 0 0 1 -76.03 75.91z"/><path d="m243.578 275.924-26.62-20.124 26.621-20.133a6 6 0 0 0 -7.238-9.572l-32.95 24.92a6 6 0 0 0 0 9.572l32.95 24.91a6 6 0 1 0 7.236-9.572z"/><path d="m308.669 251.014-32.95-24.92a6 6 0 0 0 -7.239 9.572l26.62 20.134-26.621 20.125a6 6 0 1 0 7.237 9.572l32.95-24.91a6 6 0 0 0 0-9.572z"/><path d="m262.518 212.907a6 6 0 0 0 -6.83 5.035l-11.241 74.321a6 6 0 0 0 5.035 6.83 6.066 6.066 0 0 0 .906.068 6 6 0 0 0 5.924-5.1l11.241-74.321a6 6 0 0 0 -5.035-6.833z"/></g></svg>