<svg id="Layer_1" height="512" viewBox="0 0 512 512" width="512" xmlns="http://www.w3.org/2000/svg" data-name="Layer 1"><path d="m391.22 38.22a89.445 89.445 0 1 1 -89.45 89.44 89.448 89.448 0 0 1 89.45-89.44z" fill="#fedb41"/><path d="m387.78 311.19v131.32a31.27 31.27 0 0 1 -31.27 31.27h-293.9a31.27 31.27 0 0 1 -31.27-31.27v-131.32a31.27 31.27 0 0 1 31.27-31.27h293.9a31.27 31.27 0 0 1 31.27 31.27zm-36.15 137.38v-34h-34v34zm0-54.72v-34h-34v34zm0-54.72v-34h-34v34zm-62.53 109.44v-34h-159.07v34zm0-54.72v-34h-34.01v34zm0-54.72v-34h-34.01v34zm-62.54 54.72v-34h-34v34zm0-54.72v-34h-34v34zm-62.53 54.72v-34h-34v34zm0-54.72v-34h-34v34zm-62.53 109.44v-34h-34.01v34zm0-54.72v-34h-34.01v34zm0-54.72v-34h-34.01v34z" fill="#00acea"/><path d="m317.63 414.57h34v34h-34z" fill="#00efd1"/><path d="m317.63 359.85h34v34h-34z" fill="#00efd1"/><path d="m317.63 305.13h34v34h-34z" fill="#00efd1"/><path d="m130.03 414.57h159.07v34h-159.07z" fill="#00efd1"/><path d="m255.09 359.85h34.01v34h-34.01z" fill="#00efd1"/><path d="m255.09 305.13h34.01v34h-34.01z" fill="#00efd1"/><path d="m192.56 359.85h34v34h-34z" fill="#00efd1"/><path d="m192.56 305.13h34v34h-34z" fill="#00efd1"/><path d="m130.03 359.85h34v34h-34z" fill="#00efd1"/><path d="m130.03 305.13h34v34h-34z" fill="#00efd1"/><path d="m67.49 414.57h34.01v34h-34.01z" fill="#00efd1"/><path d="m67.49 359.85h34.01v34h-34.01z" fill="#00efd1"/><path d="m67.49 305.13h34.01v34h-34.01z" fill="#00efd1"/><g fill="#083863"><path d="m369.776 163.311a6 6 0 0 0 3.713-10.717l-32.123-25.264 32.123-25.264a6 6 0 0 0 -7.418-9.432l-38.12 29.98a6 6 0 0 0 0 9.432l38.12 29.98a5.977 5.977 0 0 0 3.705 1.285z"/><path d="m406.773 161.019a6 6 0 0 0 8.426 1.008l38.13-29.98a6 6 0 0 0 0-9.434l-38.129-29.98a6 6 0 0 0 -7.418 9.434l32.132 25.263-32.132 25.263a6 6 0 0 0 -1.009 8.426z"/><path d="m382.973 178.212a5.989 5.989 0 0 0 6.83-5.034l13.53-89.41a6 6 0 0 0 -11.865-1.8l-13.53 89.41a6 6 0 0 0 5.035 6.834z"/><path d="m233 360a6 6 0 0 0 -6-6h-34a6 6 0 0 0 -6 6v34a6 6 0 0 0 6 6h34a6 6 0 0 0 6-6zm-34 6h22v22h-22z"/><path d="m170 360a6 6 0 0 0 -6-6h-34a6 6 0 0 0 -6 6v34a6 6 0 0 0 6 6h34a6 6 0 0 0 6-6zm-34 6h22v22h-22z"/><path d="m107 360a6 6 0 0 0 -6-6h-34a6 6 0 0 0 -6 6v34a6 6 0 0 0 6 6h34a6 6 0 0 0 6-6zm-12 28h-22v-22h22z"/><path d="m295 360a6 6 0 0 0 -6-6h-34a6 6 0 0 0 -6 6v34a6 6 0 0 0 6 6h34a6 6 0 0 0 6-6zm-34 6h22v22h-22z"/><path d="m358 360a6 6 0 0 0 -6-6h-34a6 6 0 0 0 -6 6v34a6 6 0 0 0 6 6h34a6 6 0 0 0 6-6zm-34 6h22v22h-22z"/><path d="m233 305a6 6 0 0 0 -6-6h-34a6 6 0 0 0 -6 6v34a6 6 0 0 0 6 6h34a6 6 0 0 0 6-6zm-34 6h22v22h-22z"/><path d="m170 305a6 6 0 0 0 -6-6h-34a6 6 0 0 0 -6 6v34a6 6 0 0 0 6 6h34a6 6 0 0 0 6-6zm-34 6h22v22h-22z"/><path d="m107 305a6 6 0 0 0 -6-6h-34a6 6 0 0 0 -6 6v34a6 6 0 0 0 6 6h34a6 6 0 0 0 6-6zm-34 6h22v22h-22z"/><path d="m295 305a6 6 0 0 0 -6-6h-34a6 6 0 0 0 -6 6v34a6 6 0 0 0 6 6h34a6 6 0 0 0 6-6zm-34 6h22v22h-22z"/><path d="m358 305a6 6 0 0 0 -6-6h-34a6 6 0 0 0 -6 6v34a6 6 0 0 0 6 6h34a6 6 0 0 0 6-6zm-34 6h22v22h-22z"/><path d="m107 415a6 6 0 0 0 -6-6h-34a6 6 0 0 0 -6 6v34a6 6 0 0 0 6 6h34a6 6 0 0 0 6-6zm-12 28h-22v-22h22z"/><path d="m295 415a6 6 0 0 0 -6-6h-159a6 6 0 0 0 -6 6v34a6 6 0 0 0 6 6h159a6 6 0 0 0 6-6zm-159 6h147v22h-147z"/><path d="m358 415a6 6 0 0 0 -6-6h-34a6 6 0 0 0 -6 6v34a6 6 0 0 0 6 6h34a6 6 0 0 0 6-6zm-34 6h22v22h-22z"/><path d="m104.43 135h191.11c.173 0 .343.018.512 0a95.454 95.454 0 1 0 -.17-11.959c-.114-.006-.227-.045-.342-.045h-191.11a29 29 0 1 0 0 58h82.07c9.406 0 17.5 7.833 17.5 17.24v75.764h-141.39c-20.55 0-37.61 16.639-37.61 37.19v131.32a37.793 37.793 0 0 0 37.61 37.49h293.9a37.689 37.689 0 0 0 37.49-37.49v-131.32a37.432 37.432 0 0 0 -37.49-37.19h-140.51v-75.76c0-16.024-13.477-29.24-29.5-29.24h-82.07a17 17 0 1 1 0-34zm286.79-90.78a83.445 83.445 0 1 1 -83.45 83.44 83.534 83.534 0 0 1 83.45-83.44zm-10.22 398.51a25.271 25.271 0 0 1 -25.271 25.27h-293.458a25.271 25.271 0 0 1 -25.271-25.27v-131.46a25.271 25.271 0 0 1 25.271-25.27h293.458a25.271 25.271 0 0 1 25.271 25.27z"/></g></svg>