<svg id="Layer_1" height="512" viewBox="0 0 512 512" width="512" xmlns="http://www.w3.org/2000/svg" data-name="Layer 1"><path d="m492.31 368.41v31.2a40.565 40.565 0 0 1 -40.57 40.57h-391.48a40.565 40.565 0 0 1 -40.57-40.57v-31.2h176.79l8.24 8.94a40.564 40.564 0 0 0 29.83 13.07h42.9a40.564 40.564 0 0 0 29.83-13.07l8.24-8.94z" fill="#fedb41"/><path d="m470.88 368.36v.05h-155.36l-8.24 8.94a40.564 40.564 0 0 1 -29.83 13.07h-42.9a40.564 40.564 0 0 1 -29.83-13.07l-8.24-8.94h-155.36v-256.02a40.572 40.572 0 0 1 40.57-40.57h348.62a40.572 40.572 0 0 1 40.57 40.57zm-40.04-37.3v-216.33h-349.68v216.33z" fill="#00acea"/><path d="m430.84 114.73v216.33h-349.68v-216.33zm-123.21 159.54v-72.38a28.948 28.948 0 0 0 -28.95-28.95h-45.36a28.948 28.948 0 0 0 -28.95 28.95v72.38a28.948 28.948 0 0 0 28.95 28.95h45.36a28.948 28.948 0 0 0 28.95-28.95z" fill="#00efd1"/><path d="m307.63 223.6v50.67a28.948 28.948 0 0 1 -28.95 28.95h-22.68v-79.62z" fill="#fedb41"/><path d="m307.63 201.89v21.71h-103.26v-21.71a28.948 28.948 0 0 1 28.95-28.95h45.36a28.948 28.948 0 0 1 28.95 28.95z" fill="#00acea"/><path d="m256 224.33v78.89h-22.68a28.948 28.948 0 0 1 -28.95-28.95v-50.67h51.63z" fill="#f4b844"/><g fill="#083863"><path d="m437 115a6 6 0 0 0 -6-6h-350a6 6 0 0 0 -6 6v216a6 6 0 0 0 6 6h350a6 6 0 0 0 6-6zm-12 210h-338v-204h338z"/><path d="m492.31 362h-15.31v-249.61a46.572 46.572 0 0 0 -46.69-46.39h-348.62a46.572 46.572 0 0 0 -46.69 46.39v249.61h-15.31c-3.314 0-5.69 3.1-5.69 6.41v31.2a46.2 46.2 0 0 0 46.26 46.39h391.48a46.2 46.2 0 0 0 46.26-46.39v-31.2c0-3.31-2.376-6.41-5.69-6.41zm-445.31-249.61a34.559 34.559 0 0 1 34.69-34.39h348.62a34.559 34.559 0 0 1 34.69 34.39v249.61h-149.48a6.21 6.21 0 0 0 -4.412 2.139l-8.239 8.832a34.566 34.566 0 0 1 -25.419 11.029h-42.9a34.465 34.465 0 0 1 -25.418-10.926l-8.24-9.04a6.1 6.1 0 0 0 -4.412-2.034h-149.48zm439 287.22a34.192 34.192 0 0 1 -34.26 34.39h-391.48a34.192 34.192 0 0 1 -34.26-34.39v-25.61h167.85l6.459 7a46.693 46.693 0 0 0 34.241 15h42.9a46.694 46.694 0 0 0 34.242-15l6.458-7h167.85z"/><path d="m174 287.27a6 6 0 0 0 6-6v-8.21a7.911 7.911 0 0 1 8.2-8.06h9.8v9.27c0 19.272 16.049 34.73 35.32 34.73h45.36c19.271 0 35.32-15.458 35.32-34.73v-9.27h9.8a7.911 7.911 0 0 1 8.2 8.06v8.21a6 6 0 0 0 12 0v-8.21a19.917 19.917 0 0 0 -20.2-20.06h-9.8v-39h9.8a8.19 8.19 0 0 1 8.2 8.4v8.2a6 6 0 1 0 12 0v-8.2a20.2 20.2 0 0 0 -20.2-20.4h-9.8v-.11c0-19.271-16.049-34.89-35.32-34.89h-5.68v-9.75a8.381 8.381 0 0 1 8.57-8.25h8.21a6 6 0 0 0 0-12h-8.21a20.392 20.392 0 0 0 -20.57 20.25v9.75h-10v-9.75a20.392 20.392 0 0 0 -20.57-20.25h-8.21a6 6 0 0 0 0 12h8.21a8.381 8.381 0 0 1 8.57 8.25v9.75h-5.68c-19.271 0-35.32 15.619-35.32 34.89v.11h-9.8a20.2 20.2 0 0 0 -20.2 20.4v8.2a6 6 0 1 0 12 0v-8.2a8.19 8.19 0 0 1 8.2-8.4h9.8v39h-9.8a19.917 19.917 0 0 0 -20.2 20.06v8.21a6 6 0 0 0 6 6zm36-13v-44.27h40v67h-16.68c-12.654 0-23.32-10.075-23.32-22.73zm68.68 22.73h-16.68v-67h40v44.27c0 12.655-10.666 22.73-23.32 22.73zm-45.36-118h45.36c12.654 0 23.32 10.235 23.32 22.89v16.11h-92v-16.11c0-12.655 10.666-22.89 23.32-22.89z"/></g></svg>