<svg id="Layer_1" height="512" viewBox="0 0 512 512" width="512" xmlns="http://www.w3.org/2000/svg" data-name="Layer 1"><path d="m502.36 412.31v31.83a23.473 23.473 0 0 1 -23.47 23.47h-112.82a23.466 23.466 0 0 1 -23.47-23.47v-31.83zm-67.59 27.65a12.29 12.29 0 1 0 -12.29 12.29 12.293 12.293 0 0 0 12.29-12.29z" fill="#f4b844"/><path d="m342.6 327.01v-35.6-54.23h159.76v175.13h-159.76v-16.92z" fill="#00efd1"/><path d="m439.57 191.1h39.32a23.473 23.473 0 0 1 23.47 23.47v22.61h-159.76v-22.61a23.466 23.466 0 0 1 23.47-23.47z" fill="#f4b844"/><path d="m439.57 83.05v108.05h-38.15v-105.83h-333.2v206.14h274.38v35.6h-51.07l-7.85 8.51a38.635 38.635 0 0 1 -28.42 12.46h-40.88a38.673 38.673 0 0 1 -28.43-12.46l-7.85-8.51h-148.03v-243.96a38.655 38.655 0 0 1 38.66-38.66h332.18a38.662 38.662 0 0 1 38.66 38.66z" fill="#00acea"/><circle cx="422.48" cy="439.96" fill="#00efd1" r="12.29"/><path d="m401.42 85.27v105.83h-35.35a23.466 23.466 0 0 0 -23.47 23.47v76.84h-274.38v-206.14z" fill="#00efd1"/><path d="m342.6 327.01v68.38h-294.3a38.662 38.662 0 0 1 -38.66-38.66v-29.72h168.46l7.85 8.51a38.673 38.673 0 0 0 28.43 12.46h40.88a38.635 38.635 0 0 0 28.42-12.46l7.85-8.51z" fill="#fedb41"/><g fill="#083863"><path d="m153.542 194.426 52.2 39.47a6 6 0 0 0 7.238-9.572l-45.873-34.684 45.872-34.694a6 6 0 1 0 -7.238-9.571l-52.2 39.479a6 6 0 0 0 0 9.572z"/><path d="m255.484 232.729a6 6 0 0 0 8.405 1.167l52.2-39.47a6 6 0 0 0 0-9.572l-52.2-39.479a6 6 0 1 0 -7.238 9.571l45.872 34.694-45.872 34.684a6 6 0 0 0 -1.167 8.405z"/><path d="m225.012 254.752a5.991 5.991 0 0 0 6.831-5.034l17.82-117.73a6 6 0 1 0 -11.866-1.8l-17.819 117.73a6 6 0 0 0 5.034 6.834z"/><path d="m478.89 185h-32.89v-101.95a45.414 45.414 0 0 0 -45.09-45.05h-332.18c-24.63 0-44.73 20.424-44.73 45.05v237.95h-14.36a5.712 5.712 0 0 0 -5.64 6.01v29.72a44.072 44.072 0 0 0 44.3 44.27h288.7v43.14c0 16.25 12.82 29.86 29.07 29.86h112.82c16.25 0 29.11-13.61 29.11-29.86v-229.57a29.283 29.283 0 0 0 -29.11-29.57zm-83.89 0h-28.93a29.25 29.25 0 0 0 -29.07 29.57v70.43h-263v-194h321zm-46 58h147v163h-147zm147-28.43v16.43h-147v-16.43c0-9.633 7.437-17.57 17.07-17.57h112.82a17.272 17.272 0 0 1 17.11 17.57zm-460-131.52c0-18.009 14.721-33.05 32.73-33.05h332.18a33.4 33.4 0 0 1 33.09 33.05v101.95h-27v-99.73c0-3.314-2.266-6.27-5.58-6.27h-333.2a6.426 6.426 0 0 0 -6.22 6.27v206.14c0 3.314 2.906 5.59 6.22 5.59h268.78v24h-45.47a6 6 0 0 0 -4.41 1.937l-7.854 8.527a32.729 32.729 0 0 1 -24.006 10.536h-40.88a32.77 32.77 0 0 1 -24.02-10.538l-7.85-8.52a6.006 6.006 0 0 0 -4.41-1.942h-142.1zm12.3 305.95a32.059 32.059 0 0 1 -32.3-32.27v-23.73h159.472l6.067 6.592a44.8 44.8 0 0 0 32.841 14.408h40.88a44.755 44.755 0 0 0 32.83-14.407l6.068-6.593h42.842v56zm430.59 73h-112.82c-9.633 0-17.07-8.227-17.07-17.86v-26.14h147v26.14c0 9.633-7.477 17.86-17.11 17.86z"/><path d="m402.51 219h39.94a6 6 0 1 0 0-12h-39.94a6 6 0 0 0 0 12z"/><path d="m422.48 421.67a18.29 18.29 0 1 0 18.29 18.29 18.311 18.311 0 0 0 -18.29-18.29zm0 24.58a6.29 6.29 0 1 1 6.29-6.29 6.3 6.3 0 0 1 -6.29 6.29z"/><path d="m392.81 271h91.53a6 6 0 0 0 0-12h-91.53a6 6 0 1 0 0 12z"/><path d="m484.34 289h-91.53a6 6 0 1 0 0 12h91.53a6 6 0 0 0 0-12z"/><path d="m484.34 318h-91.53a6 6 0 1 0 0 12h91.53a6 6 0 0 0 0-12z"/><path d="m484.34 348h-91.53a6 6 0 1 0 0 12h91.53a6 6 0 0 0 0-12z"/><path d="m484.34 378h-91.53a6 6 0 1 0 0 12h91.53a6 6 0 0 0 0-12z"/><path d="m373.99 259h-13.38a6 6 0 0 0 0 12h13.38a6 6 0 0 0 0-12z"/><path d="m373.99 289h-13.38a6 6 0 0 0 0 12h13.38a6 6 0 0 0 0-12z"/><path d="m373.99 318h-13.38a6 6 0 0 0 0 12h13.38a6 6 0 0 0 0-12z"/><path d="m373.99 348h-13.38a6 6 0 0 0 0 12h13.38a6 6 0 0 0 0-12z"/><path d="m373.99 378h-13.38a6 6 0 0 0 0 12h13.38a6 6 0 0 0 0-12z"/></g></svg>