<svg id="Layer_1" height="512" viewBox="0 0 512 512" width="512" xmlns="http://www.w3.org/2000/svg" data-name="Layer 1"><path d="m492.31 368.41v31.2a40.565 40.565 0 0 1 -40.57 40.57h-391.48a40.565 40.565 0 0 1 -40.57-40.57v-31.2h176.79l8.24 8.94a40.564 40.564 0 0 0 29.83 13.07h42.9a40.564 40.564 0 0 0 29.83-13.07l8.24-8.94z" fill="#fedb41"/><path d="m470.88 368.36v.05h-155.36l-8.24 8.94a40.564 40.564 0 0 1 -29.83 13.07h-42.9a40.564 40.564 0 0 1 -29.83-13.07l-8.24-8.94h-155.36v-256.02a40.572 40.572 0 0 1 40.57-40.57h348.62a40.572 40.572 0 0 1 40.57 40.57zm-40.04-37.3v-216.33h-349.68v216.33z" fill="#00acea"/><path d="m430.84 114.73v216.33h-349.68v-216.33zm-90.88 109.27a83.96 83.96 0 1 0 -83.96 83.96 83.96 83.96 0 0 0 83.96-83.96z" fill="#00efd1"/><circle cx="256" cy="224" fill="#fedb41" r="83.96"/><g fill="#083863"><path d="m437 115a6 6 0 0 0 -6-6h-350a6 6 0 0 0 -6 6v216a6 6 0 0 0 6 6h350a6 6 0 0 0 6-6zm-12 210h-338v-204h338z"/><path d="m492.31 362h-15.31v-249.61a46.572 46.572 0 0 0 -46.69-46.39h-348.62a46.572 46.572 0 0 0 -46.69 46.39v249.61h-15.31c-3.313 0-5.69 3.1-5.69 6.41v31.2a46.2 46.2 0 0 0 46.26 46.39h391.48a46.2 46.2 0 0 0 46.26-46.39v-31.2c0-3.31-2.377-6.41-5.69-6.41zm-445.31-249.61a34.559 34.559 0 0 1 34.69-34.39h348.62a34.559 34.559 0 0 1 34.69 34.39v249.61h-149.48a6.212 6.212 0 0 0 -4.413 2.139l-8.238 8.831a34.567 34.567 0 0 1 -25.419 11.03h-42.9a34.469 34.469 0 0 1 -25.418-10.926l-8.239-9.04a6.1 6.1 0 0 0 -4.413-2.034h-149.48zm439 287.22a34.192 34.192 0 0 1 -34.26 34.39h-391.48a34.192 34.192 0 0 1 -34.26-34.39v-25.61h167.851l6.458 7a46.694 46.694 0 0 0 34.241 15h42.9a46.7 46.7 0 0 0 34.242-15l6.457-7h167.851z"/><path d="m237.405 258.86a6 6 0 0 0 3.624-10.786l-31.782-24.034 31.782-24.034a6 6 0 1 0 -7.238-9.571l-38.11 28.819a6 6 0 0 0 0 9.572l38.11 28.82a5.972 5.972 0 0 0 3.614 1.214z"/><path d="m269.8 256.479a6 6 0 0 0 8.405 1.167l38.11-28.82a6 6 0 0 0 0-9.572l-38.11-28.819a6 6 0 1 0 -7.238 9.571l31.782 24.034-31.782 24.034a6 6 0 0 0 -1.167 8.405z"/><path d="m248.592 273.182a5.929 5.929 0 0 0 .906.069 6 6 0 0 0 5.925-5.1l13.019-85.96a6 6 0 0 0 -11.865-1.8l-13.019 85.96a6 6 0 0 0 5.034 6.831z"/><path d="m256 313.96a89.96 89.96 0 1 0 -89.96-89.96 90.062 90.062 0 0 0 89.96 89.96zm0-167.92a77.96 77.96 0 1 1 -77.96 77.96 78.049 78.049 0 0 1 77.96-77.96z"/></g></svg>