<svg id="Layer_1" height="512" viewBox="0 0 512 512" width="512" xmlns="http://www.w3.org/2000/svg" data-name="Layer 1"><path d="m453.9 291.93a41.48 41.48 0 0 1 0 82.96h-7.82v-82.96z" fill="#00acea"/><path d="m416.85 225.35 29.23-11.69v78.27 82.96 82.18l-156.53-62.61v-118.19z" fill="#fedb41"/><path d="m416.85 112.36v112.99l-127.3 50.92h-78.27a31.318 31.318 0 0 0 -28.85 19.13l-10.17 3.68a36.346 36.346 0 0 0 -24.38 34.32v.02a36.341 36.341 0 0 0 14.61 29.13l-.08.11h-118.19c-15.25 0-27.6-12.96-27.6-28.96v-221.34z" fill="#00efd1"/><path d="m416.85 55.54v56.82h-400.23v-56.82c0-15.99 12.35-28.95 27.6-28.95h345.03c15.24 0 27.6 12.96 27.6 28.95zm-220.82 14.48c0-10.66-8.24-19.3-18.4-19.3s-18.4 8.64-18.4 19.3 8.24 19.3 18.4 19.3 18.4-8.64 18.4-19.3zm-59.8 0c0-10.66-8.24-19.3-18.4-19.3s-18.41 8.64-18.41 19.3 8.24 19.3 18.41 19.3 18.4-8.64 18.4-19.3zm-59.81 0c0-10.66-8.24-19.3-18.4-19.3s-18.4 8.64-18.4 19.3 8.24 19.3 18.4 19.3 18.4-8.64 18.4-19.3z" fill="#00acea"/><path d="m201.17 392.8a31.307 31.307 0 0 1 -21.2-29.65v-55.57a31.292 31.292 0 0 1 31.31-31.31h78.27v118.19h-78.27a31.561 31.561 0 0 1 -10.11-1.66z" fill="#00acea"/><path d="m264.5 394.46 19.73 74.72-58.92 16.23-24.14-92.61a31.561 31.561 0 0 0 10.11 1.66z" fill="#fedb41"/><ellipse cx="177.63" cy="70.02" fill="#00efd1" rx="18.4" ry="19.3"/><path d="m172.26 299.08 10.17-3.68a31.243 31.243 0 0 0 -2.46 12.18v55.57a31.114 31.114 0 0 0 .99 7.83l-8.69-3.24a36.332 36.332 0 0 1 -24.39-34.32v-.02a36.346 36.346 0 0 1 24.38-34.32z" fill="#fedb41"/><path d="m117.83 50.72c10.16 0 18.4 8.64 18.4 19.3s-8.24 19.3-18.4 19.3-18.41-8.64-18.41-19.3 8.24-19.3 18.41-19.3z" fill="#00efd1"/><ellipse cx="58.02" cy="70.02" fill="#00efd1" rx="18.4" ry="19.3"/><g fill="#083863"><path d="m117.83 95.32c13.454 0 24.4-11.35 24.4-25.3s-10.946-25.3-24.4-25.3-24.41 11.35-24.41 25.3 10.95 25.3 24.41 25.3zm0-38.6c6.837 0 12.4 5.967 12.4 13.3s-5.563 13.3-12.4 13.3-12.41-5.966-12.41-13.3 5.567-13.3 12.41-13.3z"/><path d="m177.63 95.32c13.454 0 24.4-11.35 24.4-25.3s-10.946-25.3-24.4-25.3-24.4 11.35-24.4 25.3 10.946 25.3 24.4 25.3zm0-38.6c6.837 0 12.4 5.967 12.4 13.3s-5.563 13.3-12.4 13.3-12.4-5.966-12.4-13.3 5.563-13.3 12.4-13.3z"/><path d="m58.02 95.32c13.454 0 24.4-11.35 24.4-25.3s-10.946-25.3-24.4-25.3-24.4 11.35-24.4 25.3 10.946 25.3 24.4 25.3zm0-38.6c6.837 0 12.4 5.967 12.4 13.3s-5.563 13.3-12.4 13.3-12.4-5.966-12.4-13.3 5.563-13.3 12.4-13.3z"/><path d="m453.9 286h-1.9v-72.34a5.963 5.963 0 0 0 -2.6-4.968 5.813 5.813 0 0 0 -5.5-.6l-20.9 8.398v-104.031c0-.033 0-.066 0-.1s0-.066 0-.1v-56.719c0-19.271-15.223-34.54-33.75-34.54h-345.03c-18.527 0-33.22 15.269-33.22 34.54v278.16c0 19.277 14.693 35.3 33.22 35.3h116.539a40.148 40.148 0 0 0 9.476 4.555l5.874 2.105a37.086 37.086 0 0 0 20.021 21.624l23.37 89.661a5.994 5.994 0 0 0 7.4 4.252l58.92-16.231a6.247 6.247 0 0 0 4.208-7.547l-17.738-67.419h16.1l155.457 62.411a6.165 6.165 0 0 0 2.227.544 5.821 5.821 0 0 0 5.926-5.885v-76.07h1.9a47.5 47.5 0 0 0 0-95zm-409.68-253h345.03c11.91 0 21.75 9.885 21.75 22.54v50.46h-388v-50.46c0-12.655 9.31-22.54 21.22-22.54zm121.874 324.741a30.347 30.347 0 0 1 8.007-52.933q-.1 1.378-.1 2.772v54.387a27.694 27.694 0 0 1 -7.907-4.226zm11.959-67.273-7.768 2.879a42.651 42.651 0 0 0 -28.4 40.209 43.574 43.574 0 0 0 6.968 23.444h-104.633c-11.91 0-21.22-10.64-21.22-23.3v-215.7h388v103.29l-122.6 48.71h-77.12a37.365 37.365 0 0 0 -33.227 20.468zm8.729 79a25.112 25.112 0 0 1 -.782-6.32v-55.568a25.817 25.817 0 0 1 1.972-9.98 25.377 25.377 0 0 1 23.308-15.6h72.72v106h-72.72a25.343 25.343 0 0 1 -6.926-.744 5.834 5.834 0 0 0 -2.765-.828 25.051 25.051 0 0 1 -14.807-16.958zm90.131 95.272-47.331 13.16-20.229-77.778c.641.033 1.283-.117 1.927-.117h48.6zm163.087-16.532-144-57.808v-110.068l144-57.81zm38.987-89.656a35.3 35.3 0 0 1 -25.087 10.448h-1.9v-71h1.9a35.468 35.468 0 0 1 25.087 60.552z"/></g></svg>