<svg id="Layer_1" height="512" viewBox="0 0 512 512" width="512" xmlns="http://www.w3.org/2000/svg" data-name="Layer 1"><path d="m410.24 248.98 62.75-46.81v275.18h-433.98v-275.18l61.35 45.76 129.6 96.68a43.561 43.561 0 0 0 52.08 0z" fill="#00acea"/><path d="m472.99 202.17-62.75 46.81v-96.49z" fill="#fedb41"/><path d="m100.68 153.45v-77.95h309.56v173.48l-128.2 95.63a43.561 43.561 0 0 1 -52.08 0l-129.6-96.68.32-.43z" fill="#00efd1"/><path d="m319.84 75.5h-127.68l36.04-30.83a43.575 43.575 0 0 1 55.6 0z" fill="#fedb41"/><path d="m100.68 153.45v94.05l-.32.43-61.35-45.76z" fill="#fedb41"/><g fill="#083863"><path d="m181.171 224.58 43.54 36.089a6 6 0 0 0 7.658-9.239l-37.969-31.47 37.967-31.47a6 6 0 0 0 -7.658-9.24l-43.54 36.09a6 6 0 0 0 0 9.24z"/><path d="m278.841 259.879a6 6 0 0 0 8.448.79l43.54-36.089a6 6 0 0 0 0-9.24l-43.54-36.09a6 6 0 0 0 -7.658 9.24l37.969 31.47-37.967 31.47a6 6 0 0 0 -.792 8.449z"/><path d="m246.912 280.013a6 6 0 0 0 6.83-5.035l16.29-107.65a6 6 0 0 0 -11.865-1.8l-16.29 107.65a6 6 0 0 0 5.035 6.835z"/><path d="m476.6 197.381-60.6-47.793v-74.088c0-3.313-2.446-5.5-5.76-5.5h-88.187l-34.426-29.7a49.651 49.651 0 0 0 -63.327.186l-34.356 29.514h-89.264a5.326 5.326 0 0 0 -5.68 5.5v75.043l-59.55 46.834a5.739 5.739 0 0 0 -2.435 4.623h-.015v275.35a5.719 5.719 0 0 0 6.01 5.65h433.98a5.719 5.719 0 0 0 6.01-5.65v-275.35h-.015a5.7 5.7 0 0 0 -2.385-4.619zm-13.69 4.647-46.91 34.989v-72.128zm-230.883-152.487a37.59 37.59 0 0 1 47.873.059l23.7 20.4h-95.195zm171.973 32.459v73.081l-.149.189.149.118v90.581l-125.667 93.831a37.458 37.458 0 0 1 -44.685 0l-126.648-94.637v-88.808l.631-.5-.631-.8v-73.055zm-309 83.836v70.376l-45.818-34.179zm-50 305.164v-256.869l181.368 135.289a49.881 49.881 0 0 0 59.264 0l181.368-135.289v256.869z"/></g></svg>