<svg id="Layer_1" height="512" viewBox="0 0 512 512" width="512" xmlns="http://www.w3.org/2000/svg" data-name="Layer 1"><path d="m392.14 397.38v54.25a40 40 0 0 1 -40 40h-192.28a40 40 0 0 1 -40-40v-54.25zm-115.2 47.12a20.94 20.94 0 1 0 -20.94 20.95 20.94 20.94 0 0 0 20.94-20.95z" fill="#00acea"/><path d="m392.14 98.91v298.47h-272.28v-298.47zm-69.91 222.85v-92.84a37.142 37.142 0 0 0 -37.14-37.14h-58.18a37.142 37.142 0 0 0 -37.14 37.14v92.84a37.142 37.142 0 0 0 37.14 37.14h58.18a37.142 37.142 0 0 0 37.14-37.14z" fill="#00efd1"/><path d="m392.14 60.37v38.54h-272.28v-38.54a40 40 0 0 1 40-40h192.28a40 40 0 0 1 40 40z" fill="#00acea"/><path d="m322.23 256.77v64.99a37.142 37.142 0 0 1 -37.14 37.14h-29.09v-102.13z" fill="#fedb41"/><path d="m322.23 228.92v27.85h-132.46v-27.85a37.142 37.142 0 0 1 37.14-37.14h58.18a37.142 37.142 0 0 1 37.14 37.14z" fill="#00acea"/><path d="m256 423.56a20.945 20.945 0 1 1 -20.94 20.94 20.94 20.94 0 0 1 20.94-20.94z" fill="#00efd1"/><path d="m256 257.7v101.2h-29.09a37.142 37.142 0 0 1 -37.14-37.14v-64.99h66.23z" fill="#f4b844"/><g fill="#083863"><path d="m398 60a46 46 0 0 0 -46-46h-192a46 46 0 0 0 -46 46v391a46 46 0 0 0 46 46h192a46 46 0 0 0 46-46zm-272 45h260v286h-260zm33.86-79h192.28c18.747 0 33.86 15.623 33.86 34.37v32.63h-260v-32.63c0-18.747 15.113-34.37 33.86-34.37zm-33.86 377h260v48.63c0 18.747-15.113 34.37-33.86 34.37h-192.28c-18.747 0-33.86-15.623-33.86-34.37z"/><path d="m221.96 63h68.08a6 6 0 0 0 0-12h-68.08a6 6 0 0 0 0 12z"/><path d="m256 471.45a26.945 26.945 0 1 0 -26.94-26.95 26.976 26.976 0 0 0 26.94 26.95zm0-41.89a14.945 14.945 0 1 1 -14.94 14.94 14.957 14.957 0 0 1 14.94-14.94z"/><path d="m362 271.75a6 6 0 0 0 6-6v-10.52c0-13.548-11.492-24.23-25.04-24.23h-14.96v-2.08a42.805 42.805 0 0 0 -42.91-42.92h-9.09v-14.33a12.873 12.873 0 0 1 12.8-12.67h10.53a6 6 0 0 0 0-12h-10.53a24.885 24.885 0 0 0 -24.8 24.67v14.33h-16v-14.33a24.885 24.885 0 0 0 -24.8-24.67h-10.53a6 6 0 1 0 0 12h10.53a12.873 12.873 0 0 1 12.8 12.67v14.33h-9.09a42.805 42.805 0 0 0 -42.91 42.92v2.08h-14.96c-13.548 0-25.04 10.682-25.04 24.23v10.52a6 6 0 0 0 12 0v-10.52c0-6.931 6.109-12.23 13.04-12.23h14.96v53h-14.96c-13.548 0-25.04 10.672-25.04 24.22v10.52a6 6 0 0 0 12 0v-10.52c0-6.931 6.109-12.22 13.04-12.22h14.96v13.76a43.079 43.079 0 0 0 42.91 43.24h58.18a43.079 43.079 0 0 0 42.91-43.24v-13.76h14.96c6.931 0 13.04 5.289 13.04 12.22v10.52a6 6 0 0 0 12 0v-10.52c0-13.548-11.492-24.22-25.04-24.22h-14.96v-53h14.96c6.931 0 13.04 5.3 13.04 12.23v10.52a6 6 0 0 0 6 6zm-135.09-73.75h58.18a30.792 30.792 0 0 1 30.91 30.92v22.08h-120v-22.08a30.792 30.792 0 0 1 30.91-30.92zm-30.91 123.76v-58.76h54v90h-23.09a31.065 31.065 0 0 1 -30.91-31.24zm89.09 31.24h-23.09v-90h54v58.76a31.065 31.065 0 0 1 -30.91 31.24z"/></g></svg>