<svg id="Layer_1" height="512" viewBox="0 0 512 512" width="512" xmlns="http://www.w3.org/2000/svg" data-name="Layer 1"><path d="m482.32 325.93v75h-166.32-120-166.32v-75z" fill="#00acea"/><path d="m482.32 39.74v286.19h-452.64v-286.19zm-160.09 212.02v-92.84a37.142 37.142 0 0 0 -37.14-37.14h-58.18a37.142 37.142 0 0 0 -37.14 37.14v92.84a37.142 37.142 0 0 0 37.14 37.14h58.18a37.142 37.142 0 0 0 37.14-37.14z" fill="#00efd1"/><path d="m316 400.93 20 71.33h-160l20-71.33z" fill="#00efd1"/><path d="m322.23 186.77v64.99a37.142 37.142 0 0 1 -37.14 37.14h-29.09v-102.13z" fill="#fedb41"/><path d="m322.23 158.92v27.85h-132.46v-27.85a37.142 37.142 0 0 1 37.14-37.14h58.18a37.142 37.142 0 0 1 37.14 37.14z" fill="#00acea"/><path d="m256 187.7v101.2h-29.09a37.142 37.142 0 0 1 -37.14-37.14v-64.99h66.23z" fill="#f4b844"/><g fill="#083863"><path d="m29.68 407h158.406l-16.635 59h-28.981a6 6 0 0 0 0 12h227.06a6 6 0 0 0 0-12h-28.981l-16.635-59h158.406a5.8 5.8 0 0 0 5.68-6.07v-361.19a5.517 5.517 0 0 0 -5.68-5.74h-452.64a5.517 5.517 0 0 0 -5.68 5.74v361.19a5.8 5.8 0 0 0 5.68 6.07zm298.406 59h-144.172l16.635-59h110.9zm-292.086-420h440v274h-440zm440 286v63h-440v-63z"/><path d="m362 201.75a6 6 0 0 0 6-6v-10.52c0-13.548-11.492-24.23-25.04-24.23h-14.96v-2.08a42.805 42.805 0 0 0 -42.91-42.92h-9.09v-14.33a12.872 12.872 0 0 1 12.8-12.67h10.53a6 6 0 0 0 0-12h-10.53a24.885 24.885 0 0 0 -24.8 24.67v14.33h-16v-14.33a24.885 24.885 0 0 0 -24.8-24.67h-10.53a6 6 0 1 0 0 12h10.53a12.872 12.872 0 0 1 12.8 12.67v14.33h-9.09a42.805 42.805 0 0 0 -42.91 42.92v2.08h-14.96c-13.548 0-25.04 10.682-25.04 24.23v10.52a6 6 0 0 0 12 0v-10.52c0-6.931 6.109-12.23 13.04-12.23h14.96v53h-14.96c-13.548 0-25.04 10.672-25.04 24.22v10.52a6 6 0 0 0 12 0v-10.52c0-6.931 6.109-12.22 13.04-12.22h14.96v13.76a43.079 43.079 0 0 0 42.91 43.24h58.18a43.079 43.079 0 0 0 42.91-43.24v-13.76h14.96c6.931 0 13.04 5.289 13.04 12.22v10.52a6 6 0 0 0 12 0v-10.52c0-13.548-11.492-24.22-25.04-24.22h-14.96v-53h14.96c6.931 0 13.04 5.3 13.04 12.23v10.52a6 6 0 0 0 6 6zm-135.09-73.75h58.18a30.792 30.792 0 0 1 30.91 30.92v22.08h-120v-22.08a30.792 30.792 0 0 1 30.91-30.92zm-30.91 123.76v-58.76h54v90h-23.09a31.065 31.065 0 0 1 -30.91-31.24zm89.09 31.24h-23.09v-90h54v58.76a31.065 31.065 0 0 1 -30.91 31.24z"/></g></svg>