<svg id="Layer_1" height="512" viewBox="0 0 512 512" width="512" xmlns="http://www.w3.org/2000/svg" data-name="Layer 1"><path d="m482.32 325.93v75h-166.32-120-166.32v-75z" fill="#00acea"/><path d="m482.32 39.74v286.19h-452.64v-286.19zm-121.92 144.26a104.4 104.4 0 1 0 -104.4 104.4 104.4 104.4 0 0 0 104.4-104.4z" fill="#00efd1"/><path d="m316 400.93 20 71.33h-160l20-71.33z" fill="#f4b844"/><circle cx="256" cy="184" fill="#00acea" r="104.4"/><g fill="#083863"><path d="m482.32 34h-452.64a5.517 5.517 0 0 0 -5.68 5.74v361.19a5.8 5.8 0 0 0 5.68 6.07h158.406l-16.635 59h-28.981a6 6 0 0 0 0 12h227.06a6 6 0 0 0 0-12h-28.981l-16.635-59h158.406a5.8 5.8 0 0 0 5.68-6.07v-361.19a5.517 5.517 0 0 0 -5.68-5.74zm-154.234 432h-144.172l16.635-59h110.9zm147.914-71h-440v-63h440zm-440-75v-274h440v274z"/><path d="m237.676 144.591a6 6 0 0 0 -8.405-1.167l-47.4 35.84a6 6 0 0 0 0 9.571l47.4 35.841a6 6 0 0 0 7.238-9.572l-41.071-31.054 41.071-31.05a6 6 0 0 0 1.167-8.409z"/><path d="m330.129 179.264-47.4-35.84a6 6 0 1 0 -7.238 9.576l41.071 31.054-41.071 31.046a6 6 0 1 0 7.238 9.572l47.4-35.841a6 6 0 0 0 0-9.571z"/><path d="m264.988 124.958a6 6 0 0 0 -6.831 5.034l-16.179 106.89a6 6 0 1 0 11.865 1.8l16.179-106.89a6 6 0 0 0 -5.034-6.834z"/><path d="m256 73.6a110.4 110.4 0 1 0 110.4 110.4 110.525 110.525 0 0 0 -110.4-110.4zm0 208.8a98.4 98.4 0 1 1 98.4-98.4 98.511 98.511 0 0 1 -98.4 98.4z"/></g></svg>