<svg id="Layer_1" height="512" viewBox="0 0 512 512" width="512" xmlns="http://www.w3.org/2000/svg" data-name="Layer 1"><path d="m392.14 397.38v54.25a40 40 0 0 1 -40 40h-192.28a40 40 0 0 1 -40-40v-54.25zm-115.2 47.12a20.94 20.94 0 1 0 -20.94 20.95 20.94 20.94 0 0 0 20.94-20.95z" fill="#00acea"/><path d="m392.14 98.91v298.47h-272.28v-298.47zm-31.74 157.09a104.4 104.4 0 1 0 -104.4 104.4 104.4 104.4 0 0 0 104.4-104.4z" fill="#00efd1"/><path d="m392.14 60.37v38.54h-272.28v-38.54a40 40 0 0 1 40-40h192.28a40 40 0 0 1 40 40z" fill="#00acea"/><circle cx="256" cy="256" fill="#fedb41" r="104.4"/><path d="m256 423.56a20.945 20.945 0 1 1 -20.94 20.94 20.94 20.94 0 0 1 20.94-20.94z" fill="#00efd1"/><g fill="#083863"><path d="m398 60a46 46 0 0 0 -46-46h-192a46 46 0 0 0 -46 46v391a46 46 0 0 0 46 46h192a46 46 0 0 0 46-46zm-12 331h-260v-286h260zm-33.86 95h-192.28c-18.748 0-33.86-15.623-33.86-34.37v-48.63h260v48.63c0 18.747-15.112 34.37-33.86 34.37zm33.86-393h-260v-32.63c0-18.747 15.112-34.37 33.86-34.37h192.28c18.748 0 33.86 15.623 33.86 34.37z"/><path d="m290.04 51h-68.08a6 6 0 0 0 0 12h68.08a6 6 0 0 0 0-12z"/><path d="m256 417.56a26.945 26.945 0 1 0 26.94 26.94 26.97 26.97 0 0 0 -26.94-26.94zm0 41.89a14.945 14.945 0 1 1 14.94-14.95 14.962 14.962 0 0 1 -14.94 14.95z"/><path d="m181.871 260.835 47.4 35.841a6 6 0 0 0 7.238-9.572l-41.071-31.054 41.071-31.05a6 6 0 0 0 -7.238-9.572l-47.4 35.84a6 6 0 0 0 0 9.571z"/><path d="m274.324 295.509a6 6 0 0 0 8.4 1.167l47.4-35.841a6 6 0 0 0 0-9.571l-47.4-35.84a6 6 0 1 0 -7.233 9.576l41.071 31.054-41.071 31.046a6 6 0 0 0 -1.167 8.409z"/><path d="m247.012 315.712a5.991 5.991 0 0 0 6.831-5.034l16.179-106.89a6 6 0 0 0 -11.865-1.8l-16.179 106.89a6 6 0 0 0 5.034 6.834z"/><path d="m256 366.4a110.4 110.4 0 1 0 -110.4-110.4 110.525 110.525 0 0 0 110.4 110.4zm0-208.8a98.4 98.4 0 1 1 -98.4 98.4 98.511 98.511 0 0 1 98.4-98.4z"/></g></svg>