<svg id="Layer_1" height="512" viewBox="0 0 512 512" width="512" xmlns="http://www.w3.org/2000/svg" data-name="Layer 1"><path d="m256 275.02h.04a101.04 101.04 0 1 0 -.04 0zm0 58.67h-23.22l-3.36-34.69a128.52 128.52 0 0 1 -42.69-17.94l-26.75 22.18-33.07-33.01 22.18-26.75a124.807 124.807 0 0 1 -18.01-42.61l-34.75-3.36v-46.79l34.75-3.36a129.6 129.6 0 0 1 18.01-42.61l-22.18-26.75 33.07-33.01 26.75 22.18a124.991 124.991 0 0 1 42.69-17.94l3.36-34.69h46.85l3.36 34.69a128.381 128.381 0 0 1 42.68 17.94l26.75-22.18 32.67 33.01-22.18 26.75a124.807 124.807 0 0 1 18.01 42.61l34.75 3.36v46.79l-34.35 3.36a129.478 129.478 0 0 1 -18.01 42.61l22.18 26.75-33.07 33.01-26.75-22.18a125.024 125.024 0 0 1 -42.68 17.94l-3.36 34.69z" fill="#00acea"/><path d="m256 275.02a101.08 101.08 0 1 1 .04 0z" fill="#00efd1"/><path d="m288.22 395.81v69.43a32.22 32.22 0 0 1 -64.44 0v-69.43z" fill="#fedb41"/><path d="m288.22 354v41.81h-64.44v-41.81h32.22z" fill="#00efd1"/><g fill="#083863"><path d="m416.413 144.748-30.554-2.948a130.264 130.264 0 0 0 -15.492-36.6l19.363-23.37a6 6 0 0 0 -.365-8.051l-32.675-33.009a6 6 0 0 0 -8.1-.4l-23.424 19.42a134.534 134.534 0 0 0 -36.619-15.43l-2.947-30.169a5.805 5.805 0 0 0 -5.97-5.191h-46.85a5.8 5.8 0 0 0 -5.972 5.191l-2.944 30.285a130.209 130.209 0 0 0 -36.664 15.343l-23.39-19.419a6 6 0 0 0 -8.069.358l-33.07 33a6 6 0 0 0 -.38 8.072l19.407 23.4a135.1 135.1 0 0 0 -15.455 36.57l-30.656 2.947a6.147 6.147 0 0 0 -5.587 5.973v46.79a6.146 6.146 0 0 0 5.587 5.972l30.554 2.946a130.264 130.264 0 0 0 15.492 36.6l-19.363 23.372a6 6 0 0 0 .391 8.077l33.075 33.01a6 6 0 0 0 8.071.372l23.425-19.422a134.729 134.729 0 0 0 36.631 15.433l2.945 30.554a6.137 6.137 0 0 0 5.972 5.576h17.22v8h-26.22a5.816 5.816 0 0 0 -5.78 6v111.24a38 38 0 1 0 76 0v-111.24a5.816 5.816 0 0 0 -5.78-6h-26.22v-8h17.63a6.137 6.137 0 0 0 5.972-5.576l2.945-30.478a130.492 130.492 0 0 0 36.658-15.438l23.385 19.37a6 6 0 0 0 8.069-.381l33.07-33.016a6 6 0 0 0 .38-8.078l-19.409-23.403a135.049 135.049 0 0 0 15.455-36.571l30.261-2.944a6.147 6.147 0 0 0 5.584-5.975v-46.79a6.146 6.146 0 0 0 -5.587-5.972zm-160.413 346.712a26.062 26.062 0 0 1 -26-26.22v-63.24h52v63.24a26.062 26.062 0 0 1 -26 26.22zm26-101.46h-52v-30h52zm128-197.932-29.1 2.83a6.1 6.1 0 0 0 -5.356 4.67 123.339 123.339 0 0 1 -17.221 40.637 6 6 0 0 0 .388 7.1l18.678 22.538-25.339 25.288-22.549-18.7a6 6 0 0 0 -7.138-.387 118.591 118.591 0 0 1 -40.633 17.08 6.18 6.18 0 0 0 -4.713 5.442l-2.834 29.434h-12.183v-47.148c56.271-3.1 101.1-49.789 101.1-106.742 0-58.95-48.027-106.91-107.06-106.91s-107.06 47.96-107.06 106.91c0 56.906 44.77 103.578 101.02 106.734v47.156h-11.773l-2.835-29.424a6.09 6.09 0 0 0 -4.723-5.367 122.858 122.858 0 0 1 -40.7-17.16 6 6 0 0 0 -7.071.412l-22.546 18.684-25.333-25.292 18.688-22.541a6 6 0 0 0 .377-7.153 118.444 118.444 0 0 1 -17.141-40.559 6.192 6.192 0 0 0 -5.451-4.7l-29.492-2.838v-35.894l29.492-2.836a6.1 6.1 0 0 0 5.363-4.67 123.413 123.413 0 0 1 17.222-40.638 6 6 0 0 0 -.389-7.1l-18.678-22.542 25.339-25.288 22.549 18.7a6 6 0 0 0 7.138.387 118.571 118.571 0 0 1 40.642-17.081 5.744 5.744 0 0 0 4.714-5.057l2.835-29.043h35.956l2.835 29.039a5.872 5.872 0 0 0 4.723 5.175 122.437 122.437 0 0 1 40.686 17.062 6.006 6.006 0 0 0 7.073-.459l22.52-18.687 24.98 25.233-18.71 22.561a6 6 0 0 0 -.377 7.15 118.431 118.431 0 0 1 17.143 40.563 6.191 6.191 0 0 0 5.451 4.695l29.493 2.836zm-153.845 76.95c-.052 0-.1-.008-.155-.008s-.1.007-.153.008a94.909 94.909 0 1 1 95.253-94.908c0 52.282-42.561 94.825-94.945 94.908z"/><path d="m232.95 202.805-38.293-28.965 38.292-28.954a6 6 0 0 0 -7.238-9.572l-44.62 33.74a6 6 0 0 0 0 9.571l44.62 33.75a6 6 0 0 0 7.24-9.57z"/><path d="m333.36 173.839a6 6 0 0 0 -2.381-4.785l-44.62-33.74a6 6 0 1 0 -7.238 9.572l38.292 28.954-38.293 28.965a6 6 0 0 0 7.24 9.57l44.62-33.75a6 6 0 0 0 2.38-4.786z"/><path d="m264.508 117.857a6 6 0 0 0 -6.83 5.036l-15.23 100.649a6 6 0 0 0 5.034 6.831 6.2 6.2 0 0 0 .905.068 6 6 0 0 0 5.925-5.1l15.23-100.649a6 6 0 0 0 -5.034-6.835z"/></g></svg>