<svg id="Layer_1" height="512" viewBox="0 0 512 512" width="512" xmlns="http://www.w3.org/2000/svg" data-name="Layer 1"><path d="m279.17 126.71c100.63 15.92 178.58 129.29 178.58 129.29s-77.95 113.37-178.58 129.29v-41.11a91.178 91.178 0 0 0 0-176.36z" fill="#00acea"/><path d="m324.61 61.54a17.825 17.825 0 1 1 12.61-5.22 17.746 17.746 0 0 1 -12.61 5.22z" fill="#fedb41"/><path d="m324.61 450.46a17.825 17.825 0 1 1 -12.6 5.22 17.786 17.786 0 0 1 12.6-5.22z" fill="#fedb41"/><path d="m232.83 344.18a91.565 91.565 0 1 1 23.17 2.98 91.172 91.172 0 0 1 -23.17-2.98z" fill="#00efd1"/><path d="m279.17 344.18v41.11a148.509 148.509 0 0 1 -23.17 1.85v-39.98a90.783 90.783 0 0 0 23.17-2.98z" fill="#00acea"/><path d="m279.17 126.71v41.11a90.783 90.783 0 0 0 -23.17-2.98v-39.98a148.509 148.509 0 0 1 23.17 1.85z" fill="#00acea"/><path d="m256 57.54a17.83 17.83 0 1 1 12.6-5.23 17.732 17.732 0 0 1 -12.6 5.23z" fill="#fedb41"/><path d="m256 454.46a17.83 17.83 0 1 1 -12.6 5.23 17.732 17.732 0 0 1 12.6-5.23z" fill="#fedb41"/><path d="m256 347.16v39.98a148.509 148.509 0 0 1 -23.17-1.85v-41.11a90.783 90.783 0 0 0 23.17 2.98z" fill="#00acea"/><path d="m256 164.21v.63a91.375 91.375 0 0 0 -23.01 2.93l-.16-.58v-40.48a148.509 148.509 0 0 1 23.17-1.85z" fill="#00acea"/><path d="m232.83 167.19.16.58a91.183 91.183 0 0 0 -.16 176.41v41.11c-100.63-15.92-178.58-129.29-178.58-129.29s77.95-113.37 178.58-129.29z" fill="#00acea"/><path d="m187.39 61.54a17.825 17.825 0 1 1 12.6-5.22 17.786 17.786 0 0 1 -12.6 5.22z" fill="#fedb41"/><path d="m187.39 450.46a17.825 17.825 0 1 1 -12.61 5.22 17.746 17.746 0 0 1 12.61-5.22z" fill="#fedb41"/><g fill="#083863"><path d="m410.234 192.966c-28.926-27.366-73.234-61.479-125.234-71.297v-27.669h39.61a6.4 6.4 0 0 0 6.39-6.07v-21.151a23.413 23.413 0 0 0 10.658-6.217 23.878 23.878 0 1 0 -33.671 0 24.566 24.566 0 0 0 11.013 6.216v15.222h-39.83a6.089 6.089 0 0 0 -6.17 5.93v31.92c-4-.424-7.3-.717-11-.867v-56.205a23.777 23.777 0 1 0 -12 0v56.205c-3.7.15-7 .443-11 .867v-31.92a6.089 6.089 0 0 0 -6.17-5.93h-39.83v-15.222a24.647 24.647 0 0 0 11.038-6.216 23.775 23.775 0 1 0 -33.72 0 23.483 23.483 0 0 0 10.682 6.217v21.151a6.4 6.4 0 0 0 6.39 6.07h39.61v27.669c-52 9.818-96.308 43.934-125.234 71.3-32.158 30.416-51.607 58.453-52.418 59.631a6 6 0 0 0 -.021 6.8c.81 1.179 20.292 29.216 52.449 59.635 28.924 27.365 73.224 61.476 125.224 71.296v27.669h-39.61a6.4 6.4 0 0 0 -6.39 6.07v21.151a23.413 23.413 0 0 0 -10.658 6.217 23.887 23.887 0 1 0 33.684 0 24.608 24.608 0 0 0 -11.026-6.216v-15.222h39.83a6.089 6.089 0 0 0 6.17-5.93v-31.92c4 .424 7.3.717 11 .867v56.2a23.777 23.777 0 1 0 12 0v-56.2c3.7-.15 7-.443 11-.867v31.92a6.089 6.089 0 0 0 6.17 5.93h39.83v15.222a24.647 24.647 0 0 0 -11.038 6.216 23.766 23.766 0 1 0 33.708 0 23.451 23.451 0 0 0 -10.67-6.217v-21.151a6.4 6.4 0 0 0 -6.39-6.07h-39.61v-27.669c52-9.818 96.308-43.934 125.234-71.3 32.158-30.419 51.607-58.456 52.418-59.635a6 6 0 0 0 -.022-6.8c-.81-1.174-20.238-29.211-52.396-59.63zm-93.981-157.613a11.825 11.825 0 1 1 0 16.724 11.787 11.787 0 0 1 0-16.724zm-137.23 0a11.825 11.825 0 1 1 0 16.724 11.787 11.787 0 0 1 0-16.724zm16.724 441.294a11.825 11.825 0 1 1 0-16.724 11.837 11.837 0 0 1 0 16.724zm137.23 0a11.825 11.825 0 1 1 0-16.724 11.837 11.837 0 0 1 0 16.724zm-55.336-138.269a85.177 85.177 0 1 1 -21.641-167.538 85.168 85.168 0 0 1 21.641 167.538zm-4.641-206.442v28.438a103.626 103.626 0 0 0 -11-1.333v-28.041c3.7.165 7 .477 11 .936zm-28.828-92.226a11.828 11.828 0 1 1 20.189 8.354l-.009.009a11.828 11.828 0 0 1 -20.18-8.363zm5.828 91.29v28.037a104.054 104.054 0 0 0 -11 1.334v-28.435c4-.459 7.3-.771 11-.936zm-139.8 179.492a425.86 425.86 0 0 1 -48.519-54.492 425.633 425.633 0 0 1 48.352-54.315c47.778-45.196 88.967-61.956 116.967-67.77v29.393a97.176 97.176 0 0 0 0 185.379v29.392c-48-9.819-89.522-41.815-116.8-67.587zm128.8 69.572v-28.433a103.521 103.521 0 0 0 11 1.342v28.027c-3.7-.165-7-.477-11-.936zm28.828 92.226a11.828 11.828 0 1 1 -20.189-8.354l.009-.009a11.828 11.828 0 0 1 20.18 8.363zm-5.828-91.29v-28.027a103.49 103.49 0 0 0 11-1.342v28.433c-4 .459-7.3.771-11 .936zm139.988-70.682c-47.778 45.193-88.988 61.953-116.988 67.767v-29.4a97.173 97.173 0 0 0 0-185.374v-29.39c48 9.819 89.522 41.815 116.8 67.587a424.379 424.379 0 0 1 48.476 54.492 423.335 423.335 0 0 1 -48.288 54.316z"/><path d="m237.587 222.822a6 6 0 0 0 -8.405-1.169l-38.79 29.32a6 6 0 0 0 0 9.573l38.79 29.33a6 6 0 0 0 7.238-9.572l-32.46-24.543 32.459-24.534a6 6 0 0 0 1.168-8.405z"/><path d="m323.99 255.759a6 6 0 0 0 -2.382-4.786l-38.79-29.32a6 6 0 0 0 -7.236 9.574l32.459 24.534-32.46 24.539a6 6 0 0 0 7.238 9.572l38.79-29.33a6 6 0 0 0 2.381-4.783z"/><path d="m263.518 206.327a6 6 0 0 0 -6.83 5.035l-13.24 87.48a6 6 0 1 0 11.864 1.8l13.24-87.48a6 6 0 0 0 -5.034-6.835z"/></g></svg>