<svg id="Layer_1" height="512" viewBox="0 0 512 512" width="512" xmlns="http://www.w3.org/2000/svg" data-name="Layer 1"><path d="m443.69 270.14a69.684 69.684 0 1 1 -46.12 0 69.639 69.639 0 0 1 46.12 0zm-1.66 75.75a21.4 21.4 0 1 0 -21.4 21.41 21.4 21.4 0 0 0 21.4-21.41z" fill="#00efd1"/><path d="m456.87 138.62-19.77 22.51 19.77 21.41-19.77 15.53v16.87l6.59 13.18v42.02a70.125 70.125 0 0 0 -46.12 0v-147.45l23.06-16.47z" fill="#00acea"/><path d="m21.6 127.14h347.79v130.17h-347.79z" fill="#fedb41"/><g fill="#083863"><path d="m450 266.012v-37.892a6.253 6.253 0 0 0 -.838-2.683l-6.162-11.914v-12.537l17.526-13.728a5.989 5.989 0 0 0 .74-8.788l-16.1-17.441 16.207-18.449a6 6 0 0 0 -.507-8.433l-36.24-32.4a6 6 0 0 0 -7.486-.409l-22.84 16.47a5.807 5.807 0 0 0 -2.3 4.882v143.322a68.253 68.253 0 0 0 -24.727 16.425 75.588 75.588 0 1 0 107.088 0 76.425 76.425 0 0 0 -24.361-16.425zm-29.575-152.119 28.12 25.236-15.9 18.041a6 6 0 0 0 .073 8.03l15.348 16.636-14.716 11.516a6.054 6.054 0 0 0 -2.35 4.718v16.87a6.253 6.253 0 0 0 .838 2.683l6.162 11.914v32.657a75.867 75.867 0 0 0 -34 0v-136.416zm45.292 267.207a63.763 63.763 0 1 1 -66.17-105.293 64.222 64.222 0 0 1 42.159 0 63.783 63.783 0 0 1 24.011 105.3z"/><path d="m420.63 318.49a27.405 27.405 0 1 0 27.4 27.4 27.431 27.431 0 0 0 -27.4-27.4zm0 42.81a15.405 15.405 0 1 1 15.4-15.41 15.422 15.422 0 0 1 -15.4 15.41z"/><path d="m376 127a6 6 0 0 0 -6-6h-348a6 6 0 0 0 -6 6v130a6 6 0 0 0 6 6h348a6 6 0 0 0 6-6zm-13 124h-335v-118h335z"/><path d="m125.993 192.582-7.986 7.985a6 6 0 0 0 8.486 8.486l7.984-7.984 7.979 7.982a6 6 0 1 0 8.488-8.482l-7.982-7.985 8.7-8.7a6 6 0 1 0 -8.486-8.486l-8.7 8.7-8.7-8.7a6 6 0 1 0 -8.486 8.486z"/><path d="m64.98 192.585-7.98 7.981a6 6 0 1 0 8.482 8.488l7.984-7.984 7.982 7.983a6 6 0 0 0 8.486-8.486l-7.983-7.982 8.7-8.7a6 6 0 1 0 -8.488-8.482l-8.7 8.7-8.7-8.7a6 6 0 1 0 -8.486 8.486z"/><path d="m187.01 192.585-7.981 7.981a6 6 0 1 0 8.482 8.488l7.984-7.984 7.982 7.983a6 6 0 0 0 8.486-8.486l-7.983-7.982 8.7-8.7a6 6 0 1 0 -8.48-8.485l-8.7 8.7-8.7-8.7a6 6 0 0 0 -8.486 8.486z"/><path d="m248.023 192.582-7.986 7.985a6 6 0 0 0 8.486 8.486l7.984-7.984 7.979 7.982a6 6 0 1 0 8.488-8.482l-7.982-7.985 8.7-8.7a6 6 0 1 0 -8.486-8.486l-8.7 8.7-8.695-8.7a6 6 0 1 0 -8.486 8.486z"/><path d="m309.04 192.585-7.981 7.981a6 6 0 1 0 8.482 8.488l7.984-7.984 7.982 7.983a6 6 0 0 0 8.486-8.486l-7.983-7.982 8.7-8.7a6 6 0 1 0 -8.488-8.482l-8.7 8.7-8.7-8.7a6 6 0 1 0 -8.486 8.486z"/></g></svg>