<svg id="Layer_1" height="512" viewBox="0 0 512 512" width="512" xmlns="http://www.w3.org/2000/svg" data-name="Layer 1"><path d="m254.6 310.61.79-.08a111.843 111.843 0 0 1 15.55-36.78l-19.15-23.08 8.54-8.52 20-19.97 23.09 19.15a107.709 107.709 0 0 1 36.84-15.49l2.9-29.94h40.43l2.9 29.94a110.705 110.705 0 0 1 36.84 15.49l23.08-19.15 28.2 28.49-19.15 23.08a107.665 107.665 0 0 1 15.55 36.78l29.99 2.9v40.38l-29.64 2.9a111.7 111.7 0 0 1 -15.55 36.77l19.14 23.09-28.54 28.48-23.08-19.14a107.709 107.709 0 0 1 -36.84 15.49l-2.9 29.93h-40.43l-2.9-29.93a110.825 110.825 0 0 1 -36.84-15.49l-23.09 19.14-28.54-28.48 19.15-23.09a107.533 107.533 0 0 1 -15.55-36.77l-29.99-2.9v-40.38zm189.67 23.01a81.04 81.04 0 1 0 -81.04 80.92 80.985 80.985 0 0 0 81.04-80.92z" fill="#00efd1"/><path d="m449.08 78.24a36.162 36.162 0 0 1 -.1 51.04l-66.63 66.62h-39.19l-2.9 29.94a107.709 107.709 0 0 0 -36.84 15.49l-23.09-19.15-20 19.97-39.07-39.28 29.05-49.33 111.61-111.62a36.171 36.171 0 0 1 51.25.11z" fill="#00acea"/><ellipse cx="363.23" cy="333.62" fill="#fedb41" rx="81.04" ry="80.92"/><path d="m221.26 202.87 39.07 39.28-8.54 8.52 19.15 23.08a111.843 111.843 0 0 0 -15.55 36.78l-.79.08-23.42-23.29-26.91-26.76-35.44-35.25 37.48-37.47z" fill="#fedb41"/><path d="m204.27 260.56 26.91 26.76-137.38 137-35.19 56.35-47.61-47.62 56.34-35.18z" fill="#00acea"/><g fill="#083863"><path d="m501.578 307.458-25.723-2.488a113.133 113.133 0 0 0 -12.985-30.754l16.358-19.716a6 6 0 0 0 -.354-8.052l-28.2-28.49a6 6 0 0 0 -8.095-.4l-19.759 16.399a116.834 116.834 0 0 0 -30.772-12.974l-2.322-23.973 63.5-63.489a42.252 42.252 0 0 0 .116-59.506l-35.913-36.378a41.97 41.97 0 0 0 -29.862-12.637h-.084a42.034 42.034 0 0 0 -29.806 12.511l-111.61 111.7a6.286 6.286 0 0 0 -.927 1.24l-25.107 42.654-9.469-9.43a5.906 5.906 0 0 0 -4.246-1.675h-.008a5.925 5.925 0 0 0 -4.242 1.677l-37.48 37.43a5.963 5.963 0 0 0 .011 8.467l31.182 31.006-132.203 132.568-55.756 34.814a6 6 0 0 0 -1.065 9.33l47.61 47.62a6 6 0 0 0 9.332-1.064l34.825-55.766 132.663-132.3 10.133 10.078-16.7 1.593a6.178 6.178 0 0 0 -5.62 5.977v40.38a6.177 6.177 0 0 0 5.622 5.972l25.823 2.488a113.138 113.138 0 0 0 13.035 30.746l-16.333 19.724a6 6 0 0 0 .392 8.077l28.547 28.48a6 6 0 0 0 8.07.372l19.773-16.388a117.006 117.006 0 0 0 30.771 12.976l2.487 25.487a5.859 5.859 0 0 0 5.973 5.256h40.43a5.859 5.859 0 0 0 5.972-5.256l2.486-25.569a113.043 113.043 0 0 0 30.809-12.9l19.723 16.376a6 6 0 0 0 8.068-.361l28.54-28.475a6 6 0 0 0 .381-8.074l-16.369-19.754a117.338 117.338 0 0 0 12.991-30.721l25.4-2.485a6 6 0 0 0 5.409-5.971v-40.38a6 6 0 0 0 -5.422-5.972zm-246.485-150.215 111.07-111.243a30.111 30.111 0 0 1 21.321-9h.06a30.077 30.077 0 0 1 21.366 9.089l35.911 36.294a30.339 30.339 0 0 1 -.083 42.662l-64.873 64.955h-36.7a5.956 5.956 0 0 0 -5.972 5.371l-2.493 25.637a113.105 113.105 0 0 0 -30.809 12.932l-19.731-16.372a6 6 0 0 0 -8.069.369l-15.748 15.719-31.56-31.73zm-48.793 39.093 45.552 45.8-4.3 4.29a6 6 0 0 0 -.38 8.079l16.382 19.744a117.924 117.924 0 0 0 -11.446 25.425l-74.781-74.374zm-116.737 223.735a5.986 5.986 0 0 0 -.852 1.071l-31.193 49.949-36.941-36.948 49.941-31.184a6.022 6.022 0 0 0 1.071-.852l132.7-133.07 18.388 18.288zm405.437-71.702-24.225 2.369a6 6 0 0 0 -5.272 4.67 105.507 105.507 0 0 1 -14.72 34.8 6 6 0 0 0 .408 7.105l15.648 18.878-20.8 20.759-18.879-15.658a6 6 0 0 0 -7.14-.386 101.382 101.382 0 0 1 -34.789 14.628 5.814 5.814 0 0 0 -4.713 5.122l-2.375 24.344h-29.536l-2.375-24.344a5.906 5.906 0 0 0 -4.724-5.207 104.966 104.966 0 0 1 -34.847-14.629 6 6 0 0 0 -7.07.45l-18.891 15.666-20.8-20.753 15.656-18.876a6 6 0 0 0 .377-7.154 101.2 101.2 0 0 1 -14.682-34.72 6.234 6.234 0 0 0 -5.485-4.7l-24.766-2.371v-29.484l23.977-2.3h.128l.84-.08a6.029 6.029 0 0 0 5.277-4.667 105.67 105.67 0 0 1 14.734-34.808 6 6 0 0 0 -.405-7.105l-15.651-18.867 20.8-20.765 18.886 15.662a6 6 0 0 0 7.141.386 101.358 101.358 0 0 1 34.789-14.628 5.943 5.943 0 0 0 4.713-5.237l2.378-24.469h29.536l2.375 24.469a5.974 5.974 0 0 0 4.723 5.265 104.879 104.879 0 0 1 34.844 14.655 6 6 0 0 0 7.076-.435l18.851-15.644 20.507 20.716-15.677 18.894a6 6 0 0 0 -.378 7.154 101.342 101.342 0 0 1 14.683 34.732 6 6 0 0 0 5.285 4.7l24.568 2.372z"/><path d="m363.23 246.7a86.92 86.92 0 1 0 87.04 86.92 87.078 87.078 0 0 0 -87.04-86.92zm0 161.84a74.92 74.92 0 1 1 75.04-74.92 75.065 75.065 0 0 1 -75.04 74.92z"/><path d="m346.606 302.721a6 6 0 0 0 -8.4-1.167l-35.79 27.06a6 6 0 0 0 0 9.572l35.79 27.06a6 6 0 1 0 7.237-9.572l-29.464-22.274 29.459-22.274a6 6 0 0 0 1.168-8.405z"/><path d="m379.854 302.721a6 6 0 0 0 1.167 8.4l29.452 22.279-29.452 22.274a6 6 0 0 0 7.238 9.572l35.78-27.06a6 6 0 0 0 0-9.572l-35.78-27.06a6 6 0 0 0 -8.405 1.167z"/><path d="m370.2 287.327a6 6 0 0 0 -6.83 5.035l-12.21 80.711a6 6 0 0 0 5.035 6.83 6.063 6.063 0 0 0 .9.068 6 6 0 0 0 5.925-5.1l12.21-80.711a6 6 0 0 0 -5.03-6.833z"/></g></svg>