<svg id="Layer_1" height="512" viewBox="0 0 512 512" width="512" xmlns="http://www.w3.org/2000/svg" data-name="Layer 1"><path d="m493.55 221.2v69.6l-51.1 5a192.732 192.732 0 0 1 -26.8 63.4l33 39.8-49.2 49.1-39.8-33a185.836 185.836 0 0 1 -63.5 26.7l-5 51.6h-69.7l-5-51.6c-23-4.9-44.2-14.3-63.5-26.7l-39.8 33-49.2-49.1 33-39.8a185.762 185.762 0 0 1 -26.8-63.4l-51.7-5v-69.6l51.7-5a192.732 192.732 0 0 1 26.8-63.4l-33-39.8 49.2-49.1 39.8 33a185.836 185.836 0 0 1 63.5-26.7l5-51.6h69.7l5 51.6c23 4.9 44.2 14.3 63.5 26.7l39.8-33 48.6 49.1-33 39.8a185.762 185.762 0 0 1 26.8 63.4zm-102.4 34.8c0-74.5-60.49-134.9-135.1-134.9s-135.1 60.4-135.1 134.9 60.49 134.9 135.1 134.9 135.1-60.4 135.1-134.9z" fill="#00efd1"/><ellipse cx="256.05" cy="256" fill="#00acea" rx="135.1" ry="134.9"/><g fill="#083863"><path d="m494.353 215.228-47.51-4.584a191.062 191.062 0 0 0 -24.3-57.408l30.157-36.406a6 6 0 0 0 -.369-8.051l-48.607-49.1a6 6 0 0 0 -8.1-.4l-36.457 30.229a197.269 197.269 0 0 0 -57.463-24.2l-4.581-47.084a5.832 5.832 0 0 0 -5.973-5.224h-69.7a5.83 5.83 0 0 0 -5.972 5.221l-4.578 47.187a190.845 190.845 0 0 0 -57.5 24.116l-36.421-30.218a6 6 0 0 0 -8.067.359l-49.2 49.094a6 6 0 0 0 -.38 8.074l30.21 36.435a198.158 198.158 0 0 0 -24.253 57.375l-47.642 4.585a6.2 6.2 0 0 0 -5.647 5.972v69.6a6.2 6.2 0 0 0 5.647 5.972l47.51 4.584a191.062 191.062 0 0 0 24.3 57.408l-30.157 36.406a6 6 0 0 0 .4 8.077l49.207 49.1a6 6 0 0 0 8.071.372l36.457-30.227a197.269 197.269 0 0 0 57.465 24.208l4.582 47.084a5.83 5.83 0 0 0 5.968 5.216h69.7a5.83 5.83 0 0 0 5.972-5.221l4.582-47.187a190.845 190.845 0 0 0 57.5-24.116l36.415 30.218a6 6 0 0 0 8.067-.359l49.2-49.094a6 6 0 0 0 .381-8.074l-30.211-36.435a198.162 198.162 0 0 0 24.254-57.38l47.047-4.581a6.2 6.2 0 0 0 5.643-5.971v-69.6a6.2 6.2 0 0 0 -5.647-5.972zm-6.353 70.13-45.909 4.47a6.13 6.13 0 0 0 -5.385 4.67 186.481 186.481 0 0 1 -26.028 61.428 6 6 0 0 0 .381 7.1l29.494 35.588-41.469 41.386-35.6-29.515a6 6 0 0 0 -7.141-.385 179.188 179.188 0 0 1 -61.452 25.838 5.776 5.776 0 0 0 -4.712 5.087l-4.479 45.975h-58.8l-4.475-45.979a5.886 5.886 0 0 0 -4.722-5.189 185.264 185.264 0 0 1 -61.51-25.832 6 6 0 0 0 -7.072.454l-35.6 29.528-41.46-41.371 29.508-35.584a6 6 0 0 0 .377-7.151 179.176 179.176 0 0 1 -25.933-61.354 6.265 6.265 0 0 0 -5.511-4.695l-46.502-4.475v-58.7l46.5-4.476a6.131 6.131 0 0 0 5.392-4.67 186.5 186.5 0 0 1 26.028-61.428 6 6 0 0 0 -.381-7.1l-29.492-35.596 41.469-41.382 35.6 29.515a6 6 0 0 0 7.141.385 179.188 179.188 0 0 1 61.453-25.834 5.776 5.776 0 0 0 4.712-5.087l4.478-45.979h58.8l4.475 45.979a5.886 5.886 0 0 0 4.722 5.189 185.255 185.255 0 0 1 61.51 25.832 6 6 0 0 0 7.072-.454l35.572-29.506 40.909 41.325-29.529 35.61a6 6 0 0 0 -.377 7.151 179.176 179.176 0 0 1 25.933 61.354 6.265 6.265 0 0 0 5.511 4.695l46.5 4.475z"/><path d="m256.05 115.1c-77.8 0-141.1 63.208-141.1 140.9s63.3 140.9 141.1 140.9 141.1-63.208 141.1-140.9-63.297-140.9-141.1-140.9zm0 269.8c-71.186 0-129.1-57.824-129.1-128.9s57.914-128.9 129.1-128.9 129.1 57.824 129.1 128.9-57.914 128.9-129.1 128.9z"/><path d="m234.376 211.021a6 6 0 0 0 -8.405-1.167l-54.27 41.03a6 6 0 0 0 0 9.572l54.27 41.03a6 6 0 1 0 7.237-9.572l-47.939-36.244 47.939-36.244a6 6 0 0 0 1.168-8.405z"/><path d="m340.4 250.884-54.27-41.03a6 6 0 0 0 -7.237 9.572l47.94 36.244-47.94 36.244a6 6 0 1 0 7.237 9.572l54.27-41.03a6 6 0 0 0 0-9.572z"/><path d="m266.158 188.877a6 6 0 0 0 -6.831 5.035l-18.519 122.38a6 6 0 0 0 5.034 6.831 6.2 6.2 0 0 0 .906.068 6 6 0 0 0 5.925-5.1l18.519-122.38a6 6 0 0 0 -5.034-6.834z"/></g></svg>