<svg id="Layer_1" height="512" viewBox="0 0 512 512" width="512" xmlns="http://www.w3.org/2000/svg" data-name="Layer 1"><path d="m429.75 167.65v45.06a21.761 21.761 0 0 1 -21.77 21.77h-16.68v-88.6h16.68a21.768 21.768 0 0 1 21.77 21.77z" fill="#00efd1"/><path d="m423.22 302.64v34.17a21.774 21.774 0 0 1 -21.77 21.77h-10.15v-77.72h10.15a21.776 21.776 0 0 1 21.77 21.78z" fill="#00efd1"/><path d="m391.3 358.58v24.34a43.544 43.544 0 0 1 -43.54 43.55h-221.97a43.544 43.544 0 0 1 -43.54-43.55v-253.84a43.544 43.544 0 0 1 43.54-43.55h221.97a43.544 43.544 0 0 1 43.54 43.55zm-43.54 2.57v-210.3a21.774 21.774 0 0 0 -21.77-21.77h-178.43a21.774 21.774 0 0 0 -21.77 21.77v210.3a21.774 21.774 0 0 0 21.77 21.77h178.43a21.774 21.774 0 0 0 21.77-21.77z" fill="#00acea"/><rect fill="#00efd1" height="253.84" rx="21.77" width="221.97" x="125.79" y="129.08"/><path d="m345.54 428.16v34.43a32.663 32.663 0 0 1 -32.66 32.66h-152.78a32.661 32.661 0 0 1 -32.65-32.66v-36.12h218.09z" fill="#fedb41"/><path d="m345.54 83.84v1.69h-218.09v-36.12a32.661 32.661 0 0 1 32.65-32.66h152.78a32.663 32.663 0 0 1 32.66 32.66z" fill="#fedb41"/><g fill="#083863"><path d="m354 150.77a27.77 27.77 0 0 0 -27.77-27.77h-178.46a27.77 27.77 0 0 0 -27.77 27.77v210.46a27.77 27.77 0 0 0 27.77 27.77h178.46a27.77 27.77 0 0 0 27.77-27.77zm-12 210.46a15.769 15.769 0 0 1 -15.77 15.77h-178.46a15.769 15.769 0 0 1 -15.77-15.77v-210.46a15.769 15.769 0 0 1 15.77-15.77h178.46a15.769 15.769 0 0 1 15.77 15.77z"/><path d="m407.98 140h-10.98v-10.92c0-26.049-20-47.451-45-49.391v-30.279c0-21.317-17.8-38.41-39.12-38.41h-152.78c-21.311 0-39.1 17.093-39.1 38.41v30.321a49.659 49.659 0 0 0 -45 49.349v253.84a49.659 49.659 0 0 0 45 49.349v30.321c0 21.317 17.789 38.41 39.1 38.41h152.78c21.32 0 39.12-17.093 39.12-38.41v-30.279c25-1.94 45-23.342 45-49.391v-17.92h4.45c15.313 0 27.55-12.877 27.55-28.19v-34.17a27.5 27.5 0 0 0 -27.55-27.64h-4.45v-35h10.98c15.313 0 28.02-11.978 28.02-27.29v-45.06a27.913 27.913 0 0 0 -28.02-27.65zm-247.88-117h152.78c14.7 0 27.12 11.709 27.12 26.41v30.59h-207v-30.59c0-14.701 12.405-26.41 27.1-26.41zm152.78 466h-152.78c-14.695 0-27.1-11.709-27.1-26.41v-30.59h207v30.59c0 14.701-12.42 26.41-27.12 26.41zm72.12-106.08a36.933 36.933 0 0 1 -37.24 37.08h-221.97c-20.7 0-37.79-16.375-37.79-37.08v-253.84c0-20.705 17.09-37.08 37.79-37.08h221.97a36.933 36.933 0 0 1 37.24 37.08zm16.45-95.92a15.487 15.487 0 0 1 15.55 15.64v34.17c0 8.7-6.854 16.19-15.55 16.19h-4.45v-66zm22.55-74.29c0 8.7-7.324 15.29-16.02 15.29h-10.98v-76h10.98a15.9 15.9 0 0 1 16.02 15.65z"/><path d="m212.5 214.312a6 6 0 0 0 -8.449-.791l-45.32 37.56a6 6 0 0 0 0 9.239l45.32 37.559a6 6 0 1 0 7.657-9.239l-39.745-32.94 39.745-32.94a6 6 0 0 0 .792-8.448z"/><path d="m314.189 251.081-45.32-37.56a6 6 0 1 0 -7.658 9.239l39.746 32.94-39.746 32.94a6 6 0 1 0 7.657 9.239l45.321-37.559a6 6 0 0 0 0-9.239z"/><path d="m245.788 194.047a6 6 0 0 0 -6.83 5.036l-16.951 112.04a6 6 0 0 0 5.035 6.83 6 6 0 0 0 6.831-5.036l16.95-112.04a6 6 0 0 0 -5.035-6.83z"/></g></svg>