<svg id="Layer_1" height="512" viewBox="0 0 512 512" width="512" xmlns="http://www.w3.org/2000/svg" data-name="Layer 1"><path d="m428.89 446.74c.51 16.57-13.05 30.12-29.61 30.12h-276.19a40.118 40.118 0 0 1 -40-40v-361.72a40.118 40.118 0 0 1 40-40h265.8a40.1 40.1 0 0 1 40 40zm-40.19-42.25v-330.66h-265.4v330.66z" fill="#00acea"/><path d="m388.7 73.83v330.66h-265.4v-330.66zm-66.47 227.93v-92.84a37.142 37.142 0 0 0 -37.14-37.14h-58.18a37.142 37.142 0 0 0 -37.14 37.14v92.84a37.142 37.142 0 0 0 37.14 37.14h58.18a37.142 37.142 0 0 0 37.14-37.14z" fill="#00efd1"/><path d="m322.23 236.77v64.99a37.142 37.142 0 0 1 -37.14 37.14h-29.09v-102.13z" fill="#fedb41"/><path d="m322.23 208.92v27.85h-132.46v-27.85a37.142 37.142 0 0 1 37.14-37.14h58.18a37.142 37.142 0 0 1 37.14 37.14z" fill="#00acea"/><path d="m256 237.7v101.2h-29.09a37.142 37.142 0 0 1 -37.14-37.14v-64.99h66.23z" fill="#f4b844"/><g fill="#083863"><path d="m435 75.124a46.343 46.343 0 0 0 -46.11-46.124h-265.816a46.332 46.332 0 0 0 -46.074 46.14v361.739a46.331 46.331 0 0 0 46.09 46.121h276.19a35.665 35.665 0 0 0 35.72-36.349zm-18.621 388.576a23.687 23.687 0 0 1 -17.1 7.3h-276.173a34.321 34.321 0 0 1 -34.106-34.14v-361.701a34.322 34.322 0 0 1 34.09-34.159h265.784a34.332 34.332 0 0 1 34.126 34.14v371.6c0 .062-.054.158-.052.22a22.945 22.945 0 0 1 -6.569 16.74z"/><path d="m394 74a6 6 0 0 0 -6-6h-265a6 6 0 0 0 -6 6v331a6 6 0 0 0 6 6h265a6 6 0 0 0 6-6zm-11 324h-254v-318h254z"/><path d="m268.55 434h-25.1a6 6 0 0 0 0 12h25.1a6 6 0 0 0 0-12z"/><path d="m150 316.74a6 6 0 0 0 6-6v-10.52c0-6.931 6.109-12.22 13.04-12.22h14.96v13.76a43.079 43.079 0 0 0 42.91 43.24h58.18a43.079 43.079 0 0 0 42.91-43.24v-13.76h14.96c6.931 0 13.04 5.289 13.04 12.22v10.52a6 6 0 0 0 12 0v-10.52c0-13.548-11.492-24.22-25.04-24.22h-14.96v-53h14.96c6.931 0 13.04 5.3 13.04 12.23v10.52a6 6 0 0 0 12 0v-10.52c0-13.548-11.492-24.23-25.04-24.23h-14.96v-2.08a42.805 42.805 0 0 0 -42.91-42.92h-9.09v-14.33a12.873 12.873 0 0 1 12.8-12.67h10.53a6 6 0 0 0 0-12h-10.53a24.885 24.885 0 0 0 -24.8 24.67v14.33h-16v-14.33a24.885 24.885 0 0 0 -24.8-24.67h-10.53a6 6 0 1 0 0 12h10.53a12.873 12.873 0 0 1 12.8 12.67v14.33h-9.09a42.805 42.805 0 0 0 -42.91 42.92v2.08h-14.96c-13.548 0-25.04 10.682-25.04 24.23v10.52a6 6 0 0 0 12 0v-10.52c0-6.931 6.109-12.23 13.04-12.23h14.96v53h-14.96c-13.548 0-25.04 10.672-25.04 24.22v10.52a6 6 0 0 0 6 6zm46-14.98v-58.76h54v90h-23.09a31.065 31.065 0 0 1 -30.91-31.24zm89.09 31.24h-23.09v-90h54v58.76a31.065 31.065 0 0 1 -30.91 31.24zm-58.18-155h58.18a30.792 30.792 0 0 1 30.91 30.92v22.08h-120v-22.08a30.792 30.792 0 0 1 30.91-30.92z"/></g></svg>