<svg id="Layer_1" height="512" viewBox="0 0 512 512" width="512" xmlns="http://www.w3.org/2000/svg" data-name="Layer 1"><path d="m428.89 446.74c.51 16.57-13.05 30.12-29.61 30.12h-276.19a40.118 40.118 0 0 1 -40-40v-361.72a40.118 40.118 0 0 1 40-40h265.8a40.1 40.1 0 0 1 40 40zm-40.19-42.25v-330.66h-265.4v330.66z" fill="#00acea"/><path d="m388.7 73.83v330.66h-265.4v-330.66zm-28.3 182.17a104.4 104.4 0 1 0 -104.4 104.4 104.4 104.4 0 0 0 104.4-104.4z" fill="#00efd1"/><circle cx="256" cy="256" fill="#fedb41" r="104.4"/><g fill="#083863"><path d="m123.09 483h276.19a35.666 35.666 0 0 0 35.72-36.347v-371.529a46.343 46.343 0 0 0 -46.11-46.124h-265.817a46.332 46.332 0 0 0 -46.073 46.14v361.739a46.332 46.332 0 0 0 46.09 46.121zm-34.09-407.841a34.322 34.322 0 0 1 34.09-34.159h265.783a34.333 34.333 0 0 1 34.127 34.14v371.6c0 .062-.054.123-.052.185a23 23 0 0 1 -6.541 16.777 23.75 23.75 0 0 1 -17.127 7.298h-276.174a34.321 34.321 0 0 1 -34.106-34.14z"/><path d="m394 74a6 6 0 0 0 -6-6h-265a6 6 0 0 0 -6 6v331a6 6 0 0 0 6 6h265a6 6 0 0 0 6-6zm-265 6h254v318h-254z"/><path d="m268.55 434h-25.1a6 6 0 0 0 0 12h25.1a6 6 0 0 0 0-12z"/><path d="m237.676 216.591a6 6 0 0 0 -8.405-1.167l-47.4 35.84a6 6 0 0 0 0 9.571l47.4 35.841a6 6 0 0 0 7.238-9.572l-41.071-31.054 41.071-31.05a6 6 0 0 0 1.167-8.409z"/><path d="m274.324 216.591a6 6 0 0 0 1.167 8.409l41.071 31.054-41.071 31.046a6 6 0 1 0 7.238 9.572l47.4-35.841a6 6 0 0 0 0-9.571l-47.4-35.84a6 6 0 0 0 -8.405 1.171z"/><path d="m264.988 196.958a6 6 0 0 0 -6.831 5.034l-16.179 106.89a6 6 0 1 0 11.865 1.8l16.179-106.89a6 6 0 0 0 -5.034-6.834z"/><path d="m256 145.6a110.4 110.4 0 1 0 110.4 110.4 110.525 110.525 0 0 0 -110.4-110.4zm0 208.8a98.4 98.4 0 1 1 98.4-98.4 98.511 98.511 0 0 1 -98.4 98.4z"/></g></svg>