<svg id="Layer_1" height="512" viewBox="0 0 512 512" width="512" xmlns="http://www.w3.org/2000/svg" data-name="Layer 1"><path d="m492.31 368.41v31.2a40.565 40.565 0 0 1 -40.57 40.57h-391.48a40.565 40.565 0 0 1 -40.57-40.57v-31.2h176.79l8.24 8.94a40.564 40.564 0 0 0 29.83 13.07h42.9a40.564 40.564 0 0 0 29.83-13.07l8.24-8.94z" fill="#f4b844"/><path d="m470.88 368.36v.05h-155.36l-8.24 8.94a40.564 40.564 0 0 1 -29.83 13.07h-42.9a40.564 40.564 0 0 1 -29.83-13.07l-8.24-8.94h-155.36v-256.02a40.572 40.572 0 0 1 40.57-40.57h348.62a40.572 40.572 0 0 1 40.57 40.57zm-40.04-37.3v-216.33h-349.68v216.33z" fill="#00acea"/><path d="m183.14 185.93.16 121.51.03 23.41v.21h-102.17v-216.33h349.68v216.33h-101.98v-.24-189.56h-59.32v189.56.24h-38.21v-.21l.03-23.41.15-121.51-24.18-48.48z" fill="#00efd1"/><path d="m328.86 330.82v.24h-59.32v-.24-189.56h59.32z" fill="#fedb41"/><path d="m207.33 137.45 24.18 48.48h-.03-48.34z" fill="#f4b844"/><path d="m231.51 185.93-.15 121.51h-.22-47.81-.03l-.16-121.51h48.34z" fill="#fedb41"/><path d="m231.36 307.44-.03 23.41v.21h-48v-.21l-.03-23.41h.03 47.81z" fill="#f4b844"/><g fill="#083863"><path d="m437 115a6 6 0 0 0 -6-6h-350a6 6 0 0 0 -6 6v216a6 6 0 0 0 6 6h350a6 6 0 0 0 6-6zm-247.853 77h36.353l-.136 109h-36.073zm3.692-12 14.49-29.039 14.483 29.039zm-3.531 133h36.044l-.015 12h-36.015zm86.692-14h5.42a6 6 0 1 0 0-12h-5.42v-14h13.96a6 6 0 1 0 0-12h-13.96v-14h5.39a6 6 0 0 0 0-12h-5.39v-14h13.96a6 6 0 0 0 0-12h-13.96v-14h5.42a6 6 0 0 0 0-12h-5.42v-14h13.93a6 6 0 0 0 0-12h-13.93v-10h47v178h-47zm149 26h-90v-183.74a6.347 6.347 0 0 0 -6.14-6.26h-59.32c-3.313 0-5.54 2.946-5.54 6.26v183.74h-26.663l.173-139.093a5.938 5.938 0 0 0 -.631-2.67l-24.179-48.472a5.994 5.994 0 0 0 -5.368-3.319 6 6 0 0 0 -5.369 3.323l-24.19 48.48a5.868 5.868 0 0 0 -.631 2.657l.18 139.094h-90.322v-204h338z"/><path d="m492.31 362h-15.31v-249.61a46.572 46.572 0 0 0 -46.69-46.39h-348.62a46.572 46.572 0 0 0 -46.69 46.39v249.61h-15.31c-3.313 0-5.69 3.1-5.69 6.41v31.2a46.2 46.2 0 0 0 46.26 46.39h391.48a46.2 46.2 0 0 0 46.26-46.39v-31.2c0-3.31-2.377-6.41-5.69-6.41zm-445.31-249.61a34.559 34.559 0 0 1 34.69-34.39h348.62a34.559 34.559 0 0 1 34.69 34.39v249.61h-149.48a6.212 6.212 0 0 0 -4.413 2.139l-8.238 8.831a34.567 34.567 0 0 1 -25.419 11.03h-42.9a34.469 34.469 0 0 1 -25.418-10.926l-8.239-9.04a6.1 6.1 0 0 0 -4.413-2.034h-149.48zm439 287.22a34.192 34.192 0 0 1 -34.26 34.39h-391.48a34.192 34.192 0 0 1 -34.26-34.39v-25.61h167.851l6.458 7a46.694 46.694 0 0 0 34.241 15h42.9a46.7 46.7 0 0 0 34.242-15l6.457-7h167.851z"/></g></svg>