<svg id="Layer_1" height="512" viewBox="0 0 512 512" width="512" xmlns="http://www.w3.org/2000/svg" data-name="Layer 1"><path d="m484 133v252.18c0 18.22-14.08 32.99-31.45 32.99h-76.22l.79-.79-20.75-25.03a121.322 121.322 0 0 0 16.85-39.85l32.12-3.15v-43.75l-32.5-3.15a116.859 116.859 0 0 0 -16.85-39.86l20.75-25.02-30.56-30.87-25.02 20.75a119.967 119.967 0 0 0 -39.92-16.79l-3.14-32.44h-43.82l-3.14 32.44a116.9 116.9 0 0 0 -39.93 16.79l-25.02-20.75-30.93 30.87 20.75 25.02a121.039 121.039 0 0 0 -16.85 39.86l-32.5 3.15v43.75l32.5 3.15a116.727 116.727 0 0 0 16.85 39.85l-20.75 25.03.79.79h-76.6c-17.37 0-31.45-14.77-31.45-32.99v-252.18z" fill="#00efd1"/><path d="m484 68.27v64.73h-456v-64.73c0-18.22 14.08-32.99 31.45-32.99h393.1c17.37 0 31.45 14.77 31.45 32.99zm-251.59 16.49c0-12.14-9.38-21.99-20.96-21.99s-20.97 9.85-20.97 21.99 9.39 22 20.97 22 20.96-9.85 20.96-22zm-68.13 0c0-12.14-9.39-21.99-20.97-21.99s-20.97 9.85-20.97 21.99 9.39 22 20.97 22 20.97-9.85 20.97-22zm-68.14 0c0-12.14-9.39-21.99-20.97-21.99s-20.96 9.85-20.96 21.99 9.38 22 20.96 22 20.97-9.85 20.97-22z" fill="#00acea"/><path d="m405.34 305.6v43.75l-32.12 3.15a121.322 121.322 0 0 1 -16.85 39.85l20.75 25.03-.79.79h-.01l-30.14 30.07-25.02-20.74a116.831 116.831 0 0 1 -39.92 16.78l-3.14 32.44h-43.82l-3.14-32.44a120.294 120.294 0 0 1 -39.93-16.78l-25.02 20.74-30.13-30.07h-.01l-.79-.79 20.75-25.03a116.727 116.727 0 0 1 -16.85-39.85l-32.5-3.15v-43.75l32.5-3.15a121.039 121.039 0 0 1 16.85-39.86l-20.75-25.02 30.93-30.87 25.02 20.75a116.9 116.9 0 0 1 39.93-16.79l3.14-32.44h43.82l3.14 32.44a119.967 119.967 0 0 1 39.92 16.79l25.02-20.75 30.56 30.87-20.75 25.02a116.859 116.859 0 0 1 16.85 39.86zm-61.48 21.87a87.825 87.825 0 1 0 -87.83 87.7 87.758 87.758 0 0 0 87.83-87.7z" fill="#00acea"/><path d="m256.03 239.78a87.7 87.7 0 1 1 -87.82 87.69 87.758 87.758 0 0 1 87.82-87.69z" fill="#fedb41"/><path d="m211.45 62.77c11.58 0 20.96 9.85 20.96 21.99s-9.38 22-20.96 22-20.97-9.85-20.97-22 9.39-21.99 20.97-21.99z" fill="#00efd1"/><path d="m143.31 62.77c11.58 0 20.97 9.85 20.97 21.99s-9.39 22-20.97 22-20.97-9.85-20.97-22 9.39-21.99 20.97-21.99z" fill="#00efd1"/><path d="m75.17 62.77c11.58 0 20.97 9.85 20.97 21.99s-9.39 22-20.97 22-20.96-9.85-20.96-22 9.38-21.99 20.96-21.99z" fill="#00efd1"/><g fill="#083863"><path d="m452.55 29h-393.1c-20.65 0-37.45 17.771-37.45 39.27v316.91c0 21.499 16.8 38.82 37.45 38.82h74.128l28.374 28.4a6 6 0 0 0 8.067.415l21.7-17.965a126.493 126.493 0 0 0 33.867 14.281l2.725 28.3a6.128 6.128 0 0 0 5.969 5.569h43.82a6.124 6.124 0 0 0 5.972-5.562l2.725-28.225a122.3 122.3 0 0 0 33.895-14.272l21.659 17.936a6.008 6.008 0 0 0 8.067-.465l28.382-28.412h73.75c20.65 0 37.45-17.321 37.45-38.82v-316.91c0-21.499-16.8-39.27-37.45-39.27zm-393.1 12h393.1c14.033 0 25.45 12.388 25.45 27.27v58.73h-444v-58.73c0-14.882 11.417-27.27 25.45-27.27zm286.357 399.137-20.818-17.256a6 6 0 0 0 -7.138-.386 110.476 110.476 0 0 1 -37.871 15.919 6.162 6.162 0 0 0 -4.712 5.428l-2.615 27.158h-32.926l-2.615-27.158a6.078 6.078 0 0 0 -4.722-5.36 114.614 114.614 0 0 1 -37.94-16 6 6 0 0 0 -7.069.413l-20.817 17.247-23.189-23.142 17.254-20.816a6 6 0 0 0 .376-7.153 110.377 110.377 0 0 1 -15.983-37.8 5.808 5.808 0 0 0 -5.113-4.7l-26.909-2.631v-32.853l26.909-2.625a5.9 5.9 0 0 0 5.194-4.671 114.694 114.694 0 0 1 15.976-37.885 6 6 0 0 0 -.429-7.106l-17.268-20.809 23.186-23.146 20.815 17.263a6 6 0 0 0 7.137.387 110.485 110.485 0 0 1 37.88-15.929 6.127 6.127 0 0 0 4.712-5.4l2.615-27.126h32.926l2.615 27.128a6.063 6.063 0 0 0 4.722 5.345 114.241 114.241 0 0 1 37.925 16 6 6 0 0 0 7.075-.415l20.791-17.236 22.869 23.1-17.278 20.836a6 6 0 0 0 -.378 7.152 110.536 110.536 0 0 1 15.984 37.817 5.807 5.807 0 0 0 5.113 4.7l26.909 2.62v32.863l-26.535 2.619a5.9 5.9 0 0 0 -5.186 4.666 114.983 114.983 0 0 1 -15.979 37.88 6 6 0 0 0 .43 7.1l17.264 20.813zm106.743-28.137h-71.956l-16.835-20.223a126.566 126.566 0 0 0 14.293-33.764l27.7-2.713a5.834 5.834 0 0 0 5.248-5.95v-43.75a5.855 5.855 0 0 0 -5.251-5.972l-28.143-2.736a122.2 122.2 0 0 0 -14.245-33.842l17.976-21.65a6 6 0 0 0 -.343-8.051l-30.555-30.87a6 6 0 0 0 -8.092-.4l-21.693 17.992a126.072 126.072 0 0 0 -33.854-14.271l-2.725-28.264a6.1 6.1 0 0 0 -5.975-5.536h-43.82a6.1 6.1 0 0 0 -5.972 5.532l-2.725 28.21a122.331 122.331 0 0 0 -33.9 14.274l-21.663-17.948a6 6 0 0 0 -8.068.379l-30.931 30.873a6 6 0 0 0 -.379 8.078l17.977 21.679a126.626 126.626 0 0 0 -14.292 33.813l-28.076 2.738a5.855 5.855 0 0 0 -5.251 5.972v43.75a5.855 5.855 0 0 0 5.251 5.972l28.143 2.736a121.549 121.549 0 0 0 14.245 33.749l-16.854 20.193h-72.335c-14.033 0-25.45-11.938-25.45-26.82v-246.18h444v246.18c0 14.882-11.417 26.82-25.45 26.82z"/><path d="m143.31 112.76c14.871 0 26.97-12.561 26.97-28s-12.1-27.99-26.97-27.99-26.97 12.556-26.97 27.99 12.098 28 26.97 28zm0-43.99c8.254 0 14.97 7.173 14.97 15.99s-6.716 16-14.97 16-14.97-7.178-14.97-16 6.716-15.99 14.97-15.99z"/><path d="m211.45 112.76c14.866 0 26.96-12.561 26.96-28s-12.094-27.99-26.96-27.99-26.97 12.556-26.97 27.99 12.099 28 26.97 28zm0-43.99c8.249 0 14.96 7.173 14.96 15.99s-6.711 16-14.96 16-14.97-7.178-14.97-16 6.72-15.99 14.97-15.99z"/><path d="m75.17 112.76c14.872 0 26.97-12.561 26.97-28s-12.1-27.99-26.97-27.99-26.96 12.556-26.96 27.99 12.09 28 26.96 28zm0-43.99c8.254 0 14.97 7.173 14.97 15.99s-6.716 16-14.97 16-14.96-7.178-14.96-16 6.711-15.99 14.96-15.99z"/><path d="m256.03 233.78a93.7 93.7 0 1 0 93.83 93.69 93.861 93.861 0 0 0 -93.83-93.69zm0 175.39a81.7 81.7 0 1 1 81.83-81.7 81.852 81.852 0 0 1 -81.83 81.7z"/><path d="m237.616 294.292a6 6 0 0 0 -8.405-1.168l-38.79 29.33a6 6 0 0 0 0 9.573l38.79 29.32a6 6 0 1 0 7.236-9.574l-32.459-24.534 32.46-24.543a6 6 0 0 0 1.168-8.404z"/><path d="m274.455 294.291a6 6 0 0 0 1.166 8.405l32.451 24.543-32.45 24.535a6 6 0 1 0 7.237 9.572l38.78-29.32a6 6 0 0 0 0-9.571l-38.78-29.33a6 6 0 0 0 -8.404 1.166z"/><path d="m263.518 277.808a6 6 0 0 0 -6.83 5.034l-13.241 87.47a6 6 0 0 0 5.035 6.831 6.188 6.188 0 0 0 .905.068 6 6 0 0 0 5.925-5.1l13.241-87.47a6 6 0 0 0 -5.035-6.833z"/></g></svg>